<?xml version="1.0" encoding="UTF-8"?>
<svg id="Camada_1" xmlns="http://www.w3.org/2000/svg" version="1.1" viewBox="0 0 1920 1080">
  <!-- Generator: Adobe Illustrator 30.4.0, SVG Export Plug-In . SVG Version: 2.1.4 Build 226)  -->
  <defs>
    <style>
      .st0 {
        fill: #2f3239;
      }

      .st1 {
        fill: #872bfd;
      }
    </style>
  </defs>
  <g id="DGQNtk.tif">
    <g>
      <g>
        <path class="st0" d="M1228.35,434.32l-.31,204.25-76.15.09v-336.85l72.27.12c1.42,8.96.18,16.56,5.79,24.04,36.94-32.84,103.33-38.11,145.46-23.67,64.48,22.1,112.35,81.26,115.98,150.45l1.35,185.82-78.12-.12.06-173.35c0-46.38-34.63-85.26-76.73-93.82-47.12-7.51-92.06,15.97-109.61,63.01v.03Z"/>
        <path class="st0" d="M123.36,541.49c43.15,47.68,116.81,43.15,158.42-4.65l60.08,42.05c-53.68,68.33-143.77,90.12-219.86,53.86-73.75-35.15-117.24-117.49-97.69-199.79,17.73-74.61,79.04-129.92,154.73-137.03,64.36-6.06,124.26,18.13,162.92,70.67l-59.68,42.01c-37.24-46.02-104.93-55.96-150.27-15.39-42.23,37.8-47.95,104.87-8.68,148.27h.03Z"/>
      </g>
      <ellipse class="st1" cx="1085.87" cy="259.18" rx="52.66" ry="52.76"/>
      <path class="st0" d="M1025.97,607.42c80.86-37.61,101.42-111.36,78.52-190.93-20.81-72.21-84.34-120.38-159.75-121.18-28.75-.31-55.46,1.02-82,10.68-56.48,20.59-97.97,65.99-108.93,125.15-4.71,25.39-4.52,47.86-1.82,72.98,10.31,95.63,91.51,149.07,186.68,146.14,23.45-.71,45.74,5.26,65.13,17.3,22.75,14.13,32.63,36.63,30.13,63.59-5.23,56.51-96.12,80.3-158.27,53.34-29.21-12.68-48.26-38.35-48.05-70.05l-75.47-.58c-4.77,65.93,32.72,124.93,97.08,145.74l58.42,13.79,36.69.18c33.15-4.86,64.08-11.3,94.68-27.42,65.68-34.6,93.91-114.38,59.28-180.8-15.05-28.87-41.64-43.25-72.33-57.93h0ZM931.05,575.72c-57.8,0-104.68-46.94-104.68-104.84s46.88-104.84,104.68-104.84,104.68,46.94,104.68,104.84-46.88,104.84-104.68,104.84Z"/>
      <path class="st0" d="M1826.52,301.81c-2.12,13.11-.62,22.62-7.05,37.06-31.83-31.15-69.96-43.18-112.47-43.58-42.94-.4-78.95,13.73-110.62,40.32-83.29,70.02-86.71,192.5-7.45,266.49,64.91,60.64,162.98,65.22,230.23,3.97l6.83,32.53,74.36-.95v-335.5l-73.84-.37v.03ZM1712.33,574.8c-57.13,0-103.42-46.38-103.42-103.57s46.29-103.57,103.42-103.57,103.42,46.38,103.42,103.57-46.29,103.57-103.42,103.57Z"/>
      <path class="st0" d="M531.84,293.9c-98.34,0-178.03,79.84-178.03,178.31s79.72,178.31,178.03,178.31,178.03-79.84,178.03-178.31-79.72-178.31-178.03-178.31h0ZM532.02,573.07c-56.23,0-101.85-45.68-101.85-102s45.58-102,101.85-102,101.85,45.68,101.85,102-45.58,102-101.85,102Z"/>
      <g>
        <path class="st0" d="M1207.91,754.8c-14.65,6.56-27.3.77-42.04,2.06l-.43,27.12,46.66,2.19v4.68l-55.53.68.09-75.26,55.77.15c1.11,6.37-2.09,7.88-6.06,7.85l-40.29-.18c-1.39,9.51-1.48,17.82.03,26.81,14.16,1.57,26.56-2.74,41.83,4l-.03-.09Z"/>
        <path class="st0" d="M1693.65,775.36c1.51,15.91-13.7,15.39-23.33,16.31l-8.83,14.96c-4.77,2.55-6.46-2.31-5.69-3.82l5.23-10.31c-17.36-2.71-28.87-16.04-30.9-30.84-2.59-18.71,3.69-33.55,19.36-41.8,14.59-7.69,37.98-8.16,46.32,11.3-17.82-5.94-34.04-13.79-47.83-1.39-12.25,11.02-12.99,33.64-2.46,45.77,12.9,14.87,30.1,11.7,48.14-.18h0Z"/>
        <path class="st0" d="M1405.58,717.55l-.18,48.79c-.06,18.9-16.44,27.09-33.61,26.13-15.33-.86-27.76-9.17-27.58-25.98l.55-51.86h4.8l.98,46.05c.28,13.27,8.96,22.87,20.28,24.81,11.33,1.94,26.01-5.2,26.26-18.19l1.02-50.66c0-.98,6.8-.74,7.45.95l.03-.03Z"/>
        <path class="st0" d="M1459.78,727.59c-13.05,8.31-15.82,25.76-11.42,37.77,4.83,13.08,18.22,22.75,34.01,20.1,7.48-1.26,13.76-12.84,24.04-6.71-14.93,17.67-43.46,18.9-58.88,1.39-12.96-14.71-13.94-39.4,3.36-55.1,14.34-13.02,43.52-15.76,53.22,5.29-17.27-4.62-30.13-11.79-44.32-2.77v.03Z"/>
        <path class="st0" d="M1774.75,704.78c-7.85,9.6-17.76-5.73-30.32,5.17-3.32-21.15,13.73-4.59,30.66-12.93,2.28,3.39,1.05,6.06-.34,7.76h0Z"/>
        <path class="st0" d="M1858.72,715.27c-21.39,0-38.75,17.36-38.75,38.81s17.36,38.81,38.75,38.81,38.75-17.36,38.75-38.81-17.36-38.81-38.75-38.81ZM1858.66,785.14c-17.05,0-30.87-13.85-30.87-30.9s13.82-30.9,30.87-30.9,30.87,13.85,30.87,30.9-13.82,30.9-30.87,30.9Z"/>
        <path class="st0" d="M1763.55,716.66c-.77-1.54-7.42-1.29-8.16.28l-33.92,74.18c13.67,4.71,10-19.33,22.28-18.96,11.02.34,25.49-4.74,36.78,3.39,4.74,3.57,4.8,19.73,16.31,16.25l-33.33-75.13h.03ZM1741.69,763.91l17.02-38.01,17.42,37.46c-13.17,2.28-21.02,1.63-34.44.55h0Z"/>
        <path class="st0" d="M1574.47,720.85c-1.75-3.85-4.28-5.32-7.48-5.08-3.54.31-4.22,2.8-5.88,6.65l-30.23,68.61c14.04,4.62,10.56-18.16,19.3-18.68,11.85-.71,25.05-2.68,37.8,1.2,5.94,1.82,7.36,13.51,8.28,16.74,3.69,1.94,6.06,2.28,9.91.55l-31.67-69.99h-.03ZM1551.69,764.09l16.93-36.84,16.37,36.32-33.3.52Z"/>
        <path class="st0" d="M1310.9,750.02c-1.2-16.81-14.99-32.63-33.86-33l-32.29-.62c1.39,26.81,1.14,49.56.15,74.83l35.92-.77c20.62-3.72,31.33-22.59,30.04-40.44h.03ZM1293.39,775.66c-11.57,10.37-27.27,9.39-40.94,8.68l-.15-59.87c13.08-.89,26.04-2.34,37.61,4.96,14.31,9.02,17.14,33.98,3.51,46.23h-.03Z"/>
      </g>
    </g>
  </g>
</svg>