<?xml version="1.0" encoding="UTF-8"?>
<svg id="Layer_1" xmlns="http://www.w3.org/2000/svg" version="1.1" viewBox="0 0 1000 333.68">
  <!-- Generator: Adobe Illustrator 30.4.0, SVG Export Plug-In . SVG Version: 2.1.4 Build 226)  -->
  <defs>
    <style>
      .st0 {
        fill: #2f3239;
      }

      .st1 {
        fill: #872bfd;
      }
    </style>
  </defs>
  <g id="DGQNtk.tif">
    <g>
      <g>
        <path class="st0" d="M588.16,132.77l-.1,66.36-24.74.03v-109.44s23.48.04,23.48.04c.46,2.91.06,5.38,1.88,7.81,12-10.67,33.57-12.38,47.26-7.69,20.95,7.18,36.5,26.4,37.68,48.88l.44,60.37-25.38-.04.02-56.32c0-15.07-11.25-27.7-24.93-30.48-15.31-2.44-29.91,5.19-35.61,20.47Z"/>
        <path class="st0" d="M229.16,167.59c14.02,15.49,37.95,14.02,51.47-1.51l19.52,13.66c-17.44,22.2-46.71,29.28-71.43,17.5-23.96-11.42-38.09-38.17-31.74-64.91,5.76-24.24,25.68-42.21,50.27-44.52,20.91-1.97,40.37,5.89,52.93,22.96l-19.39,13.65c-12.1-14.95-34.09-18.18-48.82-5-13.72,12.28-15.58,34.07-2.82,48.17Z"/>
      </g>
      <ellipse class="st1" cx="541.87" cy="75.87" rx="17.11" ry="17.14"/>
      <path class="st0" d="M522.41,189.01c26.27-12.22,32.95-36.18,25.51-62.03-6.76-23.46-27.4-39.11-51.9-39.37-9.34-.1-18.02.33-26.64,3.47-18.35,6.69-31.83,21.44-35.39,40.66-1.53,8.25-1.47,15.55-.59,23.71,3.35,31.07,29.73,48.43,60.65,47.48,7.62-.23,14.86,1.71,21.16,5.62,7.39,4.59,10.6,11.9,9.79,20.66-1.7,18.36-31.23,26.09-51.42,17.33-9.49-4.12-15.68-12.46-15.61-22.76l-24.52-.19c-1.55,21.42,10.63,40.59,31.54,47.35l18.98,4.48,11.92.06c10.77-1.58,20.82-3.67,30.76-8.91,21.34-11.24,30.51-37.16,19.26-58.74-4.89-9.38-13.53-14.05-23.5-18.82ZM491.57,178.71c-18.78,0-34.01-15.25-34.01-34.06s15.23-34.06,34.01-34.06,34.01,15.25,34.01,34.06-15.23,34.06-34.01,34.06Z"/>
      <path class="st0" d="M782.5,89.72c-.69,4.26-.2,7.35-2.29,12.04-10.34-10.12-22.73-14.03-36.54-14.16-13.95-.13-25.65,4.46-35.94,13.1-27.06,22.75-28.17,62.54-2.42,86.58,21.09,19.7,52.95,21.19,74.8,1.29l2.22,10.57,24.16-.31v-109s-23.99-.12-23.99-.12ZM745.4,178.41c-18.56,0-33.6-15.07-33.6-33.65s15.04-33.65,33.6-33.65,33.6,15.07,33.6,33.65-15.04,33.65-33.6,33.65Z"/>
      <path class="st0" d="M361.87,87.15c-31.95,0-57.84,25.94-57.84,57.93s25.9,57.93,57.84,57.93,57.84-25.94,57.84-57.93-25.9-57.93-57.84-57.93ZM361.93,177.85c-18.27,0-33.09-14.84-33.09-33.14s14.81-33.14,33.09-33.14,33.09,14.84,33.09,33.14-14.81,33.14-33.09,33.14Z"/>
      <g>
        <path class="st0" d="M581.52,236.89c-4.76,2.13-8.87.25-13.66.67l-.14,8.81,15.16.71v1.52s-18.04.22-18.04.22l.03-24.45,18.12.05c.36,2.07-.68,2.56-1.97,2.55l-13.09-.06c-.45,3.09-.48,5.79.01,8.71,4.6.51,8.63-.89,13.59,1.3Z"/>
        <path class="st0" d="M739.33,243.57c.49,5.17-4.45,5-7.58,5.3l-2.87,4.86c-1.55.83-2.1-.75-1.85-1.24l1.7-3.35c-5.64-.88-9.38-5.21-10.04-10.02-.84-6.08,1.2-10.9,6.29-13.58,4.74-2.5,12.34-2.65,15.05,3.67-5.79-1.93-11.06-4.48-15.54-.45-3.98,3.58-4.22,10.93-.8,14.87,4.19,4.83,9.78,3.8,15.64-.06Z"/>
        <path class="st0" d="M645.74,224.79l-.06,15.85c-.02,6.14-5.34,8.8-10.92,8.49-4.98-.28-9.02-2.98-8.96-8.44l.18-16.85h1.56s.32,14.96.32,14.96c.09,4.31,2.91,7.43,6.59,8.06s8.45-1.69,8.53-5.91l.33-16.46c0-.32,2.21-.24,2.42.31Z"/>
        <path class="st0" d="M663.35,228.05c-4.24,2.7-5.14,8.37-3.71,12.27,1.57,4.25,5.92,7.39,11.05,6.53,2.43-.41,4.47-4.17,7.81-2.18-4.85,5.74-14.12,6.14-19.13.45-4.21-4.78-4.53-12.8,1.09-17.9,4.66-4.23,14.14-5.12,17.29,1.72-5.61-1.5-9.79-3.83-14.4-.9Z"/>
        <path class="st0" d="M765.68,220.64c-2.55,3.12-5.77-1.86-9.85,1.68-1.08-6.87,4.46-1.49,9.96-4.2.74,1.1.34,1.97-.11,2.52Z"/>
        <path class="st0" d="M792.96,224.05c-6.95,0-12.59,5.64-12.59,12.61s5.64,12.61,12.59,12.61,12.59-5.64,12.59-12.61-5.64-12.61-12.59-12.61ZM792.94,246.75c-5.54,0-10.03-4.5-10.03-10.04s4.49-10.04,10.03-10.04,10.03,4.5,10.03,10.04-4.49,10.04-10.03,10.04Z"/>
        <path class="st0" d="M762.04,224.5c-.25-.5-2.41-.42-2.65.09l-11.02,24.1c4.44,1.53,3.25-6.28,7.24-6.16,3.58.11,8.28-1.54,11.95,1.1,1.54,1.16,1.56,6.41,5.3,5.28l-10.83-24.41ZM754.94,239.85l5.53-12.35,5.66,12.17c-4.28.74-6.83.53-11.19.18Z"/>
        <path class="st0" d="M700.61,225.86c-.57-1.25-1.39-1.73-2.43-1.65-1.15.1-1.37.91-1.91,2.16l-9.82,22.29c4.56,1.5,3.43-5.9,6.27-6.07,3.85-.23,8.14-.87,12.28.39,1.93.59,2.39,4.39,2.69,5.44,1.2.63,1.97.74,3.22.18l-10.29-22.74ZM693.21,239.91l5.5-11.97,5.32,11.8-10.82.17Z"/>
        <path class="st0" d="M614.98,235.34c-.39-5.46-4.87-10.6-11-10.72l-10.49-.2c.45,8.71.37,16.1.05,24.31l11.67-.25c6.7-1.21,10.18-7.34,9.76-13.14ZM609.29,243.67c-3.76,3.37-8.86,3.05-13.3,2.82l-.05-19.45c4.25-.29,8.46-.76,12.22,1.61,4.65,2.93,5.57,11.04,1.14,15.02Z"/>
      </g>
    </g>
  </g>
</svg>