<?xml version="1.0" encoding="UTF-8"?>
<svg id="Camada_1" xmlns="http://www.w3.org/2000/svg" version="1.1" viewBox="0 0 1920 1080">
  <!-- Generator: Adobe Illustrator 30.4.0, SVG Export Plug-In . SVG Version: 2.1.4 Build 226)  -->
  <defs>
    <style>
      .st0 {
        fill: #e9f8ec;
      }

      .st1 {
        fill: #f3faf1;
      }

      .st2 {
        fill: #f2fbf1;
      }

      .st3 {
        fill: #f9fbf9;
      }

      .st4 {
        fill: #eff9ef;
      }

      .st5 {
        fill: #f8fdfa;
      }

      .st6 {
        fill: #f2fcf3;
      }

      .st7 {
        fill: #f0faf0;
      }

      .st8 {
        fill: #f0f9f1;
      }

      .st9 {
        fill: #f8fcf8;
      }

      .st10 {
        fill: #f2fbf3;
      }

      .st11 {
        fill: #f3fbf4;
      }

      .st12 {
        fill: #effbf0;
      }

      .st13 {
        fill: #fdfcfd;
      }

      .st14 {
        fill: #ebf8ec;
      }

      .st15 {
        fill: #f3fbf2;
      }

      .st16 {
        fill: #f5fbf4;
      }

      .st17 {
        fill: #edfaee;
      }

      .st18 {
        fill: #fbfcfa;
      }

      .st19 {
        fill: #ebf8ea;
      }

      .st20 {
        fill: #fbfdfc;
      }

      .st21 {
        fill: #f1fcf2;
      }

      .st22 {
        fill: #e5f6ea;
      }

      .st23 {
        fill: #edf9ee;
      }

      .st24 {
        fill: #f9fdfa;
      }

      .st25 {
        fill: #eaf8ec;
      }

      .st26 {
        fill: #f9fcfa;
      }

      .st27 {
        fill: #edfaed;
      }

      .st28 {
        fill: #fafcfa;
      }

      .st29 {
        fill: #f0fbf1;
      }

      .st30 {
        fill: #eefaf1;
      }

      .st31 {
        fill: #effcf2;
      }

      .st32 {
        fill: #e0f3e6;
      }

      .st33 {
        fill: #f4fdf5;
      }

      .st34 {
        fill: #f2fbf2;
      }

      .st35 {
        fill: #e9f8eb;
      }

      .st36 {
        fill: #e3f3e5;
      }

      .st37 {
        fill: #e5f3e5;
      }

      .st38 {
        fill: #e4f5e8;
      }

      .st39 {
        fill: #f1fbf2;
      }

      .st40 {
        fill: #f4fcf3;
      }

      .st41 {
        fill: #effcf1;
      }

      .st42 {
        fill: #ecf8ee;
      }

      .st43 {
        fill: #fefefe;
      }

      .st44 {
        fill: #f2fcf4;
      }

      .st45 {
        fill: #f0faf1;
      }

      .st46 {
        fill: #f6fcf5;
      }

      .st47 {
        fill: #f0faef;
      }

      .st48 {
        fill: #e2f5e2;
      }

      .st49 {
        fill: #fbfcfb;
      }

      .st50 {
        fill: #f1fcf1;
      }

      .st51 {
        fill: #fcfcfc;
      }

      .st52 {
        fill: #fafcf9;
      }

      .st53 {
        fill: #f2fbf4;
      }

      .st54 {
        fill: #edf9ef;
      }

      .st55 {
        fill: #edf8f1;
      }

      .st56 {
        fill: #fafcfb;
      }

      .st57 {
        fill: #eaf7ee;
      }

      .st58 {
        fill: #f0fbf0;
      }

      .st59 {
        fill: #f2fcf2;
      }

      .st60 {
        fill: #f9fcf9;
      }

      .st61 {
        fill: #ecf8ec;
      }
    </style>
  </defs>
  <g>
    <g>
      <path class="st43" d="M649.99,375.39c10.58,5.58,20.21,12.96,28.9,22.15,6.01,4.75,12.4,12.67,17.22,19.21,16.55,22.48,29.13,52.39,28.83,80.65l.13,181.32c-.93,9.96-1.65,19.88-2.17,29.74-24.08.73-47.82.56-71.21-.51l-.1-208.58c-1.56-20-10.99-42.38-27.79-53.49-8.3-8.1-19.93-13.65-31.08-17.63-52.28-18.74-122.36,9.63-127.18,69.48l-.41,210.83c-24.2,1.35-48.24,1.15-72.12-.57l.13-214.38,3.07-21.43c.09-.41-.12-1.19-.41-1.57,4.29-9.95,8.2-20.23,11.73-30.83,8.1-15.8,18.99-29.3,30.57-42.45,8.19-7.32,16.47-13.06,25.5-19,21.4-14.83,49.27-23.01,75-27.35,38.63-3.69,78.57,4.72,111.39,24.47v-.03Z"/>
      <path class="st10" d="M623.8,445.86c-1.53,3.44-4.56,1.65-4.39-1.6-30.46-25.13-83.26-25.82-116.02-4.39-3.28,4.58-7.49,8.77-12.64,12.56l-8.46,8.82c-1.06,3.78-3.03,6.05-5.92,6.8-4.89,9.48-9.4,20.53-9.42,32.81l-.35,209.64-66.13.25c-3.7,0-6.72-.34-8.93-1.48-.93-.29-1.34-.79-1.32-1.79.63-72.25,1.13-146.57.19-218.87.12-2.76.91-5.45,2.95-7.45.69-3.07.43-6.54,2.85-9.02-.31,1.35-.65,3.76,2.1,4.07-3.09,5.22-2.09,10.77-3.69,17.52l-.15,213.85,69.17.12.37-210.2,6.95-31.68c7.52-.06,4.7-9.79,15.86-17.37l7.7-5.23c1.72-5.97,9.95-7.7,15.25-10.23,3.54-1.7,5.08-4.97,10.07-6.38l10.37-2.94,24.97-1.94,24.48,1.2,13.62,3.86,9.98,5.25c.79.43,2.54-3.69,2.5-1.38-.09,4.85,5.97,4.09,12.4,5.8l5.61,9.4h.03Z"/>
      <path class="st34" d="M660.58,379.79l4.2,2.67c4.83.56,20.4,13.73,22.25,17.68.22.47-.03,1.16-.43,1.93,23.94,25.89,39.59,58.79,39.72,95.21l.29,77.9c1.18,34.94,1.07,70.74.06,105.8-.66.48-1.51,1.38-1.51,2.84l.15,26.42-75.06-.18c-2.66.19-3.17-1.85-1.54-6.14.25-69.98.13-139.87-.37-209.67-2.56-11.62-6.79-22.25-12.71-31.87l.15-2.15c-4.04-.98-7.86-6.25-9.08-10.21-2.92.24-4.82-1.56-2.88-4.16,2-.12,4.79.03,6.3,2.03.48.63.43,2.04.5,2.6.09.71,2.78.1,3.34.56,5.28,4.28,6.44,11.56,9.65,17.47l4.29,2.57c.94.57-.94,3.84-.26,5.69l5.41,14.78.1,216,67.43-.5c1.98,0,2.79-6.5,2.13-8.63-1.98-6.39.79-13.96.79-20.68l.04-184.32-1.66-20.88c-.26-2.62-2.06-4.22-3.64-.48.9-6.42-1.41-11.58-4.36-17.8l-5.26-11.07-4.64-12.89c-3.51-.5-3.31-4.32-4.35-5.67l-9.95-12.84c-2.31-2.98-7.11-4.57-7.13-9.95,0-3.2-3.72-2.01-4.67-2.89l-12.06-11.04c-2.06-1.88-2.47-3.69-5.25-4.39-1.4-.37-2.94,1.1-6.33,1.43-1.34.13-.43-3.69,1.38-4.22-.31-2.81-3.73-4.09-5.61-5.39-.53-2.12.5-1.93,1.97-.28,2.54-1.6,8.93,1.69,8.61,4.69v.03Z"/>
      <path class="st31" d="M632.01,363.78c5.57.62,13.36,3.64,18.05,6.69.32.21.21,1.09-.03,2.17l1.79,1.03c1.32.28,1.35.76.15,1.44-.48.03-1.54.1-1.97.28-4.69,1.94-15.28-5.79-22.92-10.89l-13.99-3.14c-3.44-.76-8.46-2.42-11.71-2.72-6.72-.59-7.51-6.47-21.69-6.5l-41-.09-13.28,1.45c-1.93.21-2.7,2.16-2.09,3.85l-25.92,5.57c-5.23,1.12-6.02,2.54-10.64,4.83l-13.52,6.73-9.61,3.76c-2.67.75-2.53-.12-.54-2.07,4.11-6.76,13.43-11.07,20.98-14.25,5.44-2.29,10.57-4.38,16.65-3.84,43.09-14.36,89.93-12.39,131.33,5.69h-.03Z"/>
      <path class="st2" d="M463.05,376.2c.37.97.34,1.76.54,2.07,3.51,5.23-5.51,5.3-12.78,9.13l2.1,2.4c-6.8,2.85-13.37,6.54-17.93,12.89-.15,2.16-.79,9.24-4.56,5.67-2.32,5.28-6.11,9.57-11.14,13.58-4.22,1.98-3.01,7.41-4,9.83-2.23,3.13-5.63,4.81-6.99,9.02l-8.55,26.51c-.59,1.82-2.62,3.06-3.94,3.25,4.54-21.84,14.77-42,28.27-59.62,4.35-8.29,8.83-13.83,15.53-19.79,6.74-6.01,15.3-12.74,23.44-14.94h0Z"/>
    </g>
    <g>
      <path class="st43" d="M1229.07,586.74c3.01,6.42,6.51,13.31,12.17,17.65,1.6,4.35,3.92,6.82,6.98,7.41,3.39,5.64,7.3,7.45,13.34,9.6,25.26,16.88,66.94,17.63,94.69,5.98,27.82-11.7,44.98-34.69,50.08-64.07l.04-210.62c24.04-.65,48.01-.38,71.9.76,1.31,75.31,1.13,150.33-.5,225.05-2.48,17.3-10.48,35.59-18.69,50.33-6.45,10.43-13.9,20.28-22.37,29.55l-1.76-1.34-4.51,6.36c1.23,1.59.37,2.22-1.37,1.1-20.54,19.66-48.67,32.71-76.99,39.76-3.26.81-17.71,3.86-20.23,3.97-21.75.93-46.55-1.85-67.7-6.33-.4.73-.73,1.29-.94,1.25-9.18-2.29-21.03-6.61-28.07-12.27-50.33-25.5-83.57-71.81-86.7-130.53l-.19-209.67c.57-.94,2.06-1.6,4.42-2,23.61.82,47.39,1.43,71.33,1.79l.18,211.21c1.51,6.7,3.63,13.17,6.38,19.43-.15,2.54-.65,4.42-1.5,5.63h0Z"/>
      <path class="st47" d="M1479.26,353.26c-.94,1.6-1.53,1.47-1.76-.38-23.38-.46-46.79-.57-70.23-.35-1.1,69.98-1.43,140.22-.96,210.75-.04,12.18-5.16,24.13-10.05,34.65-7.54-.26-1.03,7.8-10.67,10.65-2.85.84-3.84,5.66-5.53,6.98l-19.88,11.84c-11.54,6.88-43.61,10.33-53.55,8.61l-21.54-3.75c-5.69-.98-13.99-.38-18.52-4.88-3.64-3.61-5.16-6.3-11.49-6.07-3.61.13-7.01-5.47-7.3-8.63-6.36,3.28-5.58-5.6-6.55-8.35l2.47.21c8.07,6.63,16.53,12.87,25.41,18.74,3.94.29,6.25,1.56,6.95,3.79l4.19,1.57c17.91,2.51,32.42,3.13,50.49,1.43,2.13-.21,4.19-.51,6.14-1.47,2.03,2.45,4.78,1.91,8.24-1.63,5.69-.34,10.18-2.09,13.49-5.23,4.26-.56,8.71-2.32,13.39-5.3,12.7-9.15,23.01-21.45,27.98-36.47-.72-3.32-.18-4.95,1.62-4.88.62-1.87.28-5,1.31-6.73-.44-3.75-.04-6.89,1.22-9.4-1.29-67.42-1.31-139.94.01-208.18l71.99-.66c1.34,0,2.44.46,2.84.97.35.44.26,1.63.31,2.13l-.02.04Z"/>
      <path class="st7" d="M1479.26,353.26l.66,46.45-.29,167.74c-1.43,39.9-23.2,74.25-49.95,100.32-.44,1.95-.85,2.28-2,.51-3.88-.87-2.16-4.13,1.38-3.81.16-.43.94-.91,1.37-1.1l4.51-6.36c9.2-1.37,6.94-16.96,15.08-15.36l3.94-8.76c1.01.12,2.78-.53,3.2-.93.35-.32.21-1.69-.63-2.01-.68-.26-1.45,1.03-2.76-.51,5.29-5.01,10.33-12.36,12.95-19.68l7.66-21.48c2.94-8.24,3.81-19.16,3.91-28.23l.44-40.84c.09-8.35-3.07-17.43-.31-25.61,1.66-4.91-.53-8.3-.54-12.95l-.34-127.42h-70.33l-.87,210.03-.78-211.47,66.17-.09c3.13,0,5.13.22,7.55,1.53h-.02Z"/>
      <path class="st15" d="M1429.06,664.49l-1.38,3.81c.46,5.61-9.32,11.32-14.83,13.09-1.4-.47-2.37.51-3.1.94-1.22,4.63-3.76,6.08-7.61,4.38-22.19,12.76-47.42,19.9-73,21.9l-5.95,2.28-39.47-1.75c-4.04-.81-7.85-2.31-11.45-4.5-.44-.09-1.38.15-1.82.18-3.63-.1-5.73-1.07-6.29-2.92l10.51,1.2,17.91,2.35c13.17,1.72,26.22-1.66,39.24,2.65,6.82-5.6,15.06-2.82,22.15-5.58l14.71-5.73c5.73-2.23,13.49-3.22,18.19-6.51,5.03-3.53,8.29-4.92,14.14-7.1,9.92-3.7,22.66-18.93,23.5-19.22,1.37-.5,3.09-.43,4.57.57v-.03Z"/>
      <path class="st42" d="M1241.22,604.38l-2.6,1.66c-1.09.71-2.26-.94-1.5-1.5,3.2-2.37-4.81-3.45-8.05-17.81l12.17,17.65h-.01Z"/>
      <path class="st15" d="M1434.93,657.02c-.01,3.2-1.94,5.29-4.51,6.36.54-2.6,1.79-5.97,4.51-6.36Z"/>
    </g>
    <g>
      <path class="st43" d="M970.63,353.13c44.86-1.81,90.74,4.07,135.8,10.7-5.05,13.33-7.58,20-7.58,20l-2.29.44c-3.2,10.52-7.51,20.47-12.89,29.89-.6,4.13-1.9,7.6-3.88,10.39-21.16-2.91-42.25-6.02-63.28-9.38l-.35-1.54c-.25,2.34-2.29,2.29-2.97.04l-23.47-.03c-.56,1.12-1.06,1.09-1.48-.07-2.59-.63-4.56-.12-5.91,1.51-1.23,1.31-5.63,1.51-7.1.18-1.43-.41-3.07-.12-4.92.9-1.72,1.15-4.03,1.95-6.95,2.42-29.07,5.57-42.09,38.21-12.04,53.34l.15,1.87c26,9.6,52.81,15.77,80.44,18.54,8.46,3.37,17.16,5.8,26.08,7.32,14.53,5.26,28.61,11.67,42.2,19.21,21.51,21.1,30.18,38.34,29.61,68.96-.29,15.33-3.17,32.26-8.86,46.51-.07.19-.76.15-1.62.01-4.63,12.86-11.51,24.57-20.62,35.12-3.86,4.79-8.33,10.05-13.71,12.99.47.88.79,1.63.56,1.93-2.37,2.87-14.25,7.14-18.53,7.88l-16.68,5.45-24.33,3.79-89.96-.81c-9.96-.72-19.96-2.12-30.01-4.2-5.55.34-41.95-3.04-43-5.5-.69-1.63,12.8-27.89,14.89-31.8.19-.35.82-.47,1.57-.53,3.85-11.58,9.26-21.98,16.21-31.21,12.43.59,24.92,1.35,37.5,2.32,29.18,5.88,58.16,6.05,86.93.56,17.27-5.94,24.88-9.57,27.74-28.27,1.03-6.72,1.06-15.33-1.95-21.53-5.35-11.01-14.5-13.62-25.61-16.56-2.98-.79-6.02-1.35-9.1-1.73-.29.04-.85,0-1.12-.06-2.67-1.73-5.6-2.76-8.7-3.5-21.47-5.1-43.36-9.49-65.3-13.46l-2.16-2.38c-6.77-1.04-12.27-3.63-16.52-7.77-15.58-3.64-30.95-17.31-41.23-29.43-14.31-16.87-16.3-44.22-14.58-65.6.81-20.38,10.36-39.51,25.55-53.75,22.38-20.95,53.55-32.46,83.44-33.14h.01Z"/>
      <path class="st44" d="M879.52,658.67c-1.18-.29-1.31-1.79-.43-4.5-2.69-1.34-1.98-3.48.68-4.09-.03-4.06,1.37-6.58,4.17-7.6.32-4.13,1.41-5.92,3.29-5.39l5.79-11.68,4.13-1.87c7.86-.09,15.61.94,23.22,3.09,4.79.06,9.2.51,13.23,1.37l1.88.28c17.43.09,34.9,1.25,52.42,3.51,11.89-1.88,23.72-3.61,35.5-5.2.01-1.93,1.35-2.59,4.01-1.98l.41-2.34c23.1-8.6,22.87-44.28-.28-51.58.31-1.57-.51-2.72-2.45-3.42l-13.86-5.04c7.14-.97,13.86,1.01,21.07,3.47,1.38.47,4.7-.18,6.01.72,1.06.72,1.19,2.87,1.94,4.73,7.8,4.73,10.36,12.92,9.71,21.67l-1.18,15.8c-.06.73,2.72,2.31,2.25,2.67l-2.62,1.95-6.6,11.49c-5.79-1.34-8.76,3.32-12.45,4.61-13.2,4.64-25.76,6.91-39.44,6.45l-31.67-1.09-25.92-3.25c-5.86-.73-13.37-2.2-17.85-.76-3.76,2.47-7.01-1.59-10.26-2.06-9.52-1.4-14.45,6.45-15.69,14.49l-5.42,10.33c-1.32,2.51-.78,4.57-3.59,5.23v-.03Z"/>
      <path class="st50" d="M989.72,413.62l23.47.03c.72-.24,2.28-.35,2.97-.04,3.51,1.82,3.85,2.16-.1,3.38l-36.53-.22-14.42,3.01c-10.64,2.22-20.18,7.7-25.89,16.52-6.3,9.71-4.53,20.81,3.89,28.33,7.2,6.44,15.81,9.76,24.38,12.8l3.42-.85c16.41,4.85,33.05,8.8,49.9,11.84l36.11,9.23c5.32-.73,8.39.28,9.23,3.04l7.13,2.84c8.7,1.1,19.81,6.52,26.29,12.43.6.54.71,1.65.65,2.91-5.48-1.88-12.74-2.72-17.82-6.91s-10.95-5.14-16.22-7.42c-6.2-2.67-10.76-5.07-17.75-3.84-3.04.54-7.44-3.54-9.86-5.04-5.11-3.16-10.7-2.37-16.21-3.19l-36.44-5.5c-6.27-.94-10.73-2.4-16.58-6.01l-19.25-4.54c-2.23-.53-3.06-2.37-.29-3.92-12.59-6.66-18.75-14.87-15.83-29.74l2.34-11.87,11.39-7.96,9.71-3.35c4.56-1.57,8.6-5.33,12.9-3.42,1.84-1.23,3.47-1.53,4.92-.9,1.88-.78,5.01-.06,7.1-.18.25-2.5,3.54-2.01,5.91-1.51.34-.15,1.13-.04,1.48.07h.01Z"/>
      <path class="st40" d="M977.95,351.81c6.8-1.37,15.24-1.28,22.04-.03l32.36,1.37,76.71,8.92-12.52,29.2.65,2.1c-2.76,8.07-6.39,15.56-10.92,22.48.5,5.83-3.13,17.09-9.65,12.05-8.82-1.34-17.74-3.19-26.77-5.57l-33.78-5.36.1-3.38c6.48,3,14.45.53,21.94,1.88l10.07,1.81,16.44,4.14c5.39,1.37,10.89,2.26,16.27.04-2.17-6.26.81-9.96,4.44-13.68,4.39-4.51,4.28-12.12,5.86-17.78,1.09-3.86,3.69-6.57,3.32-10.9,2.88,1.43,2.62,2.75,3.72,4.07.31-7.73,2.45-12.86,6.16-18.66-6.14-2.09-11.42-.43-16.75-1.5l-15.75-3.16-25-2.31-8.68-.12-14.9-.24,6.57-2.03-59.24-2.04c-1.31-.28-1.28-.73-.03-1.38l7.35.06h.01Z"/>
      <path class="st17" d="M879.52,658.67c-3.53,7.95-5.22,17.08-11.65,23.91-1.91,2.03-3.2,4.16-2.6,6.25.79,2.73,3.82,2.76,6.44,3.14l21.5,3.16c5.03.73,11.89-2.22,16.78.68,5.33,3.16,9.52,2.56,15.12,2.28,4.7-.24,9.23,1.45,14.52-1.6-.19,2.57-1.95,2.5-2.89,3.25l16.06-.65,19.28,1.1,47.07-.37c3.78-.03,6.91,1.62,11.52.13,6.42-2.07,13.4-3.39,19.71-2.23-15.46,5.06-31.89,5.69-48.92,5.39l-46.73-.78c-10.84.71-21.78.63-32.78-.19-7.77-2.41-15.75-3.04-23.92-1.9-.57-2.65-2.85-3.07-6.83-1.28-6.92-1.81-14-3.16-21.26-4.09-5.82,1.69-9.74.94-11.79-2.25,5.54-12.59,11.7-25.16,17.81-37.65.5-1.03,1.88-1.1,3.16-.81.26,1.29.9,3.44.43,4.5Z"/>
      <path class="st29" d="M1010.13,562.17c-7.85-1.4-15.31-4.76-23.36-4.63l-14.69-3.37c-2.23-.37-4.94-.26-6.97-1.26-2.51.69-4.57.22-6.2-1.4-.32.04-.84,0-1.13-.07-3.32.37-5.41-.22-6.26-1.73l-7.3-1.4c-7.67.48-15.71-2.78-21.75-7.42-13.84-4.72-26.22-13.15-37.03-23.01-1.66-2.03-3.41-2.85-5.25-2.47l-5.29-7.98-2.38-4.34-2.03.34-4.72-10.32c1.68-4.97-6.67-17.1-5.5-27.91-1.1-9.05-.65-17.44,1.38-25.17l.85,26.2,6.05,24.33,5.2,8.14c4.67,7.32,11.12,13.58,17.43,19.19,8.64,6.83,16.33,13.52,27.7,14.78,5,8.3,14.25,7.8,22.39,9.29-1.66.71-4.31-.56-4.95,2.97,14.24-1.22,25.88,3.5,38.77,6.51,4.61,1.07,8.16,1.22,12.62,3.59,5.45,2.88,17.84-.04,22.42,7.16v-.03Z"/>
      <path class="st39" d="M1118.59,537.33c6.8,9.86,10.8,21.51,11.98,33.45,1.03,2.88,1.45,6.38,1.28,10.49l.07,11.27c.34,11.14.4,22.73-6.02,32.45-.43,6.19-3.22,13.2-7.3,17.55-.28.69-.79,2.2-1.4,2.72.24,2.72.21,5.04-2.91,4.82-.19.73-.9,1.94-1.34,2.53-.98,4.89-6.69,14.12-11.12,15.28-.97-.44-2.42.76-3.09,1.59-.07-7.24,7.69-9.1,7.41-18.1l1.93,5.11c1.13-5.67,3.81-8.98,6.69-13.89l3.73-14.45c.56,1.03-.25,3.57,2.09,4.78,7.99-22.28,10.77-70.2,1.13-83.83l-13.39-18.96c-2.98-4.22-8.05-6.38-8.08-11.27,7.95,1.51,14.71,10.99,18.38,18.49h-.03Z"/>
      <path class="st30" d="M970.6,351.75l.03,1.38c-5.07-.18-8.43,1.38-13.81,2.48l-21.63,4.41-15.28,6.83c-8.08,3.61-16.5,6.22-23.16,12.8-5.04,4.98-10.73,9.61-14.61,15.97-1.28,2.09-7.82,4.1-7.91,6.52.53,6.45-4.26,8.76-5.6,13.46l-6.98,24.41c-2.32,8.11-.47,16.86-1.38,25.17-2.44-20.44-.57-43.03,10.74-61.72,14.47-23.92,38.91-38.9,65.35-46.14,11.87-3.25,22.82-5.67,34.24-5.57h0Z"/>
      <path class="st30" d="M999.99,351.79l-22.04.03c.16-1,1.26-1.56,2.82-1.56h16.38c1.57,0,2.67.57,2.84,1.53Z"/>
      <path class="st40" d="M1013.18,413.66c-5.76,2.22-17.88,2.26-23.47-.03,7.82-2.59,15.52-1.69,23.47.03Z"/>
      <path class="st40" d="M988.22,413.54c-1.76,1-3.81,1.4-5.91,1.51-.16-.51-.32-1.18-1.41-2.4,2.06-1.19,5.73-1.23,7.3.87h.01Z"/>
      <path class="st40" d="M975.23,415.25c-1.6.66-2.73,1.88-4.92.9.6-1.07,1.45-1.84,2.66-2.45.97-.5,2.16-.18,2.26,1.56h0Z"/>
    </g>
    <polygon class="st43" points="833.86 710.33 746.4 710.55 746.34 350.57 833.86 350.34 833.86 710.33"/>
    <g>
      <path class="st6" d="M835.99,284.01c1,1.7,1.57,3.12-.63,3.12,1.45,1.63.37,4.26-1.94,4.16,1.84,2.63-3.1,9.57-5.53,12.65-11.46,14.65-35.36,19.54-53.08,16.21-19.51-3.69-39.71-27.7-36.27-48.08.4-23.6,15.87-45.67,41.09-49.35,5.19-.75,12.14-.91,17.38-.09,29.58,4.61,46.73,33.68,38.97,61.4h0Z"/>
      <path class="st43" d="M804.5,313.66c-5.07,4.38-26.33,4.57-35.8-2.32-5.51-4.01-14.75-6.19-12.12-12.87-3.19-.98-9.36-5.54-9.6-8.82-.29-4.07-1.79-5.57-3.17-9.02-3.37-8.36-.88-31.12,3.06-21.57-1.22-4.61-.71-9.52,2.75-13.73,1.7-.07,2.94.04,3.66-.51,1.37-1.04,1.68-3.86,2.19-5.22,2.37-6.14,9.86-7.39,14.02-10.83,6.92-5.75,22.39-6.2,32.28-.96,3.76,2,8.1,2.31,12.15,3.19,5.6,1.23,6.41,10.33,9.54,13.12,3.39,3.03,6.08,3.32,7.3,8.49l5.2,9.51c-3.12,5.3-.35,10.8-1.22,15.94-2.15,12.77-12.45,16.69-13.53,25.6-1.87,1.25-4.2,2.57-5.26,4.75-5.54-1.88-7.94,2.19-11.45,5.23h0Z"/>
    </g>
    <g>
      <path class="st57" d="M268.23,611.63l-5.03,7.01c-.73.38-2.54-.6-2.95-1.19l-.04-1.03,8.04-4.79h-.01Z"/>
      <g>
        <path class="st43" d="M110.99,353.28l-.22,195.19-.43,10.62,4.07,24.06c2.15,12.65,22.31,35.06,32.15,37.46,3.2.78,6.99,3.44,6.19,7.3,7.01-.87,12.89,2.6,19.62,4.94,9.49,3.29,20.09,2.62,29.62,2.57,2.42,1.1,5,1.1,7.39-.03l4.45.15,21.26-2.51c3.61-.43,6.6-4.23,11.05-3.03.31-1.94.68-2.78,1.34-2.94s2.32.48,3.04.76c1.03-2.25,2.91-3.84,4.58-5.39l17.75-2.13c.81-.09.56-2.03-.46-1.78l-3.75.94c-.98-4,1.9-9.45,7.17-9.96,1.41-2.84,2.13-5.11,4.22-7.29,3.78.79,7.58-1.26,7.57-4.94v-6.33c-.03-2.69,1.75-3.12,2.23-3.98,1.93-1.5,2.44-3.51,1.56-6.05l1.51-4.42c1.25-1.37,1.69-2.57,1.82-4.36-.63-2.4-.98-7.24,2.51-8.95l-1.01-208.74c1.87-.72,3.01-1.22,4.03-1.22,17.43-1.15,35.65-1.26,53.11.13,2.73,0,6.91-1.57,9.85.53,1.6,1.15,1.88,5.91,1.88,8.27l-.31,92.34c-.01,5.64,0,9.52.04,15.09l.66,79.12c.04,4.56.93,8.35,0,12.87,1.51,4.75,2.7,11.92-2.6,14.68,1.09,9.4-.82,19.41-7.01,27.88-.53,5.97-4.66,10.07-6.51,15.02l-3.79,10.15-16.91,21.28c-1.75,2.2-4.86,3.86-4.53,6.95-.97.79-1.41,3.73-3.2,3.98-4.89.66-6.8,5.55-9.98,7.51-10.65,6.51-9.82,12.56-22.76,12.18l-.41,2.92c-.09.65-2.23,2.03-3.03,1.84-4.83-1.23-7.22,4.89-9.86,5.64l-21.09,6.05c-.73.21-1.93,2.76-3.04,1.78-.44-.38-.84-1.56-2-1.29-2.78-.06-3.01,2.57.35,2.59-1.97,2.87-5.26,1.85-8.95,2.34l-18.07,2.4c-10.07,1.34-20.34-.93-30.48,2.06l-29.07-4.78c-2.26-1-3.16-2.79-3.82-5.28-3.29,3.79-5.53.75-8.29.28-6.54-1.09-13.3-2.75-17.58-7.2-.51-.53-3.42.26-3.5-.47-.5-5.33-3.98-4.5-12.71-6.07l-5.91-3.81c-4.13-.69-5.67-2.22-7.46-4.67-.72-5.98-5.88-11.32-12.98-9.14l3.25-3.6c-2.94.71-8.17-.44-7.76-2.85.76-4.45-4.06-7.79-7.74-9.13-3.1-1.12-2.69-5.1-3.98-6.2-3.04-2.62-4.51-4.51-2.84-8.85l-8.14-3.95-2.76-8.63c-6.58-4.01-11.12-14.72-10.76-21.9-4.2-6.99-6.23-12.01-7.08-20.28-.94-9.04-3.57-18.9-1.9-27.74l-.24-1.62-.75-1.79.03-196.97c23.78-.54,47.54-.4,71.3.43l.03-.03Z"/>
        <g>
          <path class="st33" d="M330.39,655.24c-2.4,2.12-4.45,2.88-6.17,2.26l-2.6-2.56c7.14-9.15,14.34-18.32,21.6-27.54,6.2-13.5,11.79-27.23,16.77-41.18-.62-5.97.47-10.67,3.23-14.14-.88-71.9-1.5-143.95-1.88-216.15-4.26.56-6.89-.32-7.89-2.66-17.38-1.41-35.66-1.23-53.11-.13.47,3.98-1.4,4.03-4.03,1.22l1.01,208.74c.84,3.12.69,7.33-2.51,8.95.34,1.63-.48,3.47-1.82,4.36,3.98,1.51,2.59,4.73-1.51,4.42,1.19,1.88.78,5.45-1.56,6.05,1.29,2.72,1.85,9.57-2.23,10.32-2.04,2.76-5.8,4.23-9.2,4.29,8.79-13.78,15.64-28.65,15.68-46.41l.51-192.87c0-4.34-1.91-7.79.09-12.26h73.93l.19,66.44,1.03,142.42c-1.78,36.72-15.31,70.21-39.5,96.35l-.03.04Z"/>
          <path class="st58" d="M114.9,572.42c3.61,2.66,4.61,6.74,4.31,11.4,5.07,10.05,7.61,15.08,7.61,15.08,1.78-.15,3.23.84,4.36,2.97,15.41,17.43,39.97,27.35,63.03,31.15,6.67-.03,13.2.28,19.59.93,1.29.41,1.29.94.04,1.59-.25,4.23-3.6,3.86-4.45-.15-2.28,1.19-5.08,1.18-7.39.03l-2.72,2.97c-12.92,1.59-26.61-1.7-38.34-6.67-6.22-.1-10.29-2.38-12.2-6.85-28.41-12.2-38.74-36.27-41.34-65.55l.62-204.24,2.94-1.79c-23.34-.73-46.76-.94-70.24-.63l-1.04,1.15-.03,196,.75,1.82c1.34.28,1.4.82.24,1.62-1,5.45-1.6,10.84-1.82,16.13-.48-.1-1.2-.47-1.37-1.82v-217.22h74.96v204.05c-1,7.05,1.47,12.46,2.47,18.05h.03Z"/>
          <path class="st11" d="M103.34,675.49c-3.66-1.63-7.52-3.6-11.58-5.88l-20.22-19.69c-2.95-.69-5.26-3.16-4.32-6.02l-1.7-.75-1.88.31c-4.29-5.2-7.11-11.39-8.46-18.56-9.82-16.65-16.4-36.21-16.36-55.52l.03-13.42c0-1.57.59-2.69,1.78-2.72,2.41,2.81,3.32,6.88,2.75,12.21.37,12.73,3.37,24.39,8.98,35.02.18,8.17,3.51,16.02,10.2,20.91,1.38,5.97,5.01,10.39,10.9,13.28.04,4.42,1.78,8.82,5.23,13.18,5.08,1.94,10.29,5.67,10.05,11.71,6.3,1.23,20.88,8.98,14.56,15.96l.04-.03Z"/>
          <path class="st10" d="M320.81,665.6c-9.07,10.83-22.66,19.4-35.24,26.05-4.82,1.41-9.24,3.61-13.25,6.63l-24.57,6.76c-2.85-.65-5.58-.09-9.2.63-52.3,10.32-106.39-2.25-146.77-36.06,4.51.26,8.96,2.31,11.58,5.88l3.16-.71c7.22,4.47,15.05,7.7,23.5,9.71,6.77,6.38,15.27,10.36,25.48,11.95,2.7-1.85,5.44-.66,8.21,3.59l27.82,4.57c17.68-1.34,35.33-2.91,52.95-4.7-.19-4.14,3.2-5.51,6.89-3.98,7.38-2.87,14.94-5.23,22.72-7.1,3-3.95,6.67-5.94,11.01-5.95.87-3.54,3.98-5.26,9.33-5.16,9.02-6.7,17.77-13.39,26.26-20.03l3.56-.15c1.48-1.22,4.01-1.93,6.17-2.26l-9.6,10.36v-.03Z"/>
          <path class="st1" d="M255.15,622.43c3.09,6.27-12.48,11.73-18.4,13.25-4.76,1.22-15.69,2.56-20.53,2.53l-2.38-2.67-.04-1.59,1.45-1.5,3.04.24c12.9-1.06,25.7-5.39,36.81-12.12,2.84.04,2.85,1.15.06,1.87h-.01Z"/>
          <path class="st46" d="M287.67,597.27c6.01,2.88-1.28,8.29-6.42,8.14-2.28,3.84-5.39,7.27-9.36,10.3,6.05,2.63,4.56,4.88-.25,7.7-1.44.85-16.33,3.03-16.49-.98l-.06-1.87,5.14-3.12c3-1.18,5.48-3.34,7.99-5.82,2.75-3.84,6.3-7.48,10.23-10.07,2.79-1.84,5.53-4.01,9.2-4.29h.01Z"/>
          <path class="st46" d="M297.31,563.15l-1.01-208.74,1.01,208.74Z"/>
          <path class="st46" d="M353.44,353.31l-53.11-.13c.46-.81,1.47-1.44,3.03-1.44h47.19c1.62,0,2.69.53,2.91,1.57h-.01Z"/>
          <path class="st46" d="M289.9,586.96c.21-2.13.85-3.98,1.56-6.05,2.03.57,1.88,2.38,1.85,3.79-.03,2.01-1.29,2.78-3.41,2.25h0Z"/>
          <path class="st46" d="M292.97,576.48c.4-1.15-.22-3.44,1.82-4.36.51.5,1.31,1.45,1.09,2.15-.44,1.41-1.6,2.12-2.92,2.23h.01Z"/>
          <path class="st11" d="M110.99,353.28c-3.17,1.69-6.55.19-10.35.18l-60.25-.16v198.32c-.51.1-1.47-.41-1.47-1.7l.09-197.93,71.51-.16c.38,0,.48,1.15.48,1.44h-.01Z"/>
          <path class="st1" d="M209.4,635.38c-1.48,2.29-5.86,2.29-7.39.03l7.39-.03Z"/>
          <path class="st46" d="M298.15,572.33c-1-2.22-.66-4.56-.53-6.7.38-.44.73-.76.76-.78,1.13,2.45,1.15,6.19-.24,7.48Z"/>
        </g>
      </g>
    </g>
    <g>
      <path class="st43" d="M1878.93,530.97l-2.41-3.69,2.25-3.7-.41-156.85.12-16.5.25-143.66c-11.02-.63-17.15,9.49-27.44,12.98-5.32-.13-7.6,4.09-11.96,6.25l-22.54,11.11c-1.79.88-3.12,6.33-4.98,6.55-3.23-.1-5.67-.9-6.36,1.62-4.16,1.75-3.64,5.38-1.98,8.51l-1.16,20.43v79.26l1.85,7.63c-2.48,6.04-1.47,11.3-3.38,13.73-1.72,2.16-8.23-1.9-16.47-6.57l-5.04-5.66c-1.82-2.04-5.8-2.51-8.73.47-.65-.98-1.2-2.16-2.07-2.67-1.03-.6-2.38-.37-3.82.13.93-2.85.03-4.82-2.01-5.55l-15.27-5.42-11.93-3.28c-7.71-2.12-15-5.39-23.5-5.47l-50.7-.4c-6.51-.04-12.95,2.65-18.88,4.41l-26.1,7.74c-4.03,1.19-8.66,1.47-9.65,6.97,2.76-.78,5.44-1.23,6.6,1.81-9.1-2.88-15-1.19-21.44,3.31-4.73,3.31-10.11,5.04-14.2,9.65-1.62,1.82-5.69,1.93-7.38,2.85.4,3.48-4.56,3.72-5.47,8.82-.13.72-3.1-.35-3.7.12-6.79,5.36-14.31,11.96-18.63,19.63l-8.29,10.07c-3.04,3.7-6.26,6.54-9.26,8.39-1.03,4.97-2.81,9.7-5.82,14.86l-4.83,8.26-9.14,24.89c-1.72-3.79-3.26-1.75-3.45.78.47,7.98-2.23,14.62-4.45,21.79l-2.54,22.91c-1.1,9.9-2.1,20.71.34,30.11.97,3.72-.29,6.07.34,9.96l4.51,27.77c4.48.32,3.84,5.28,4.76,7.98l5.36,15.53c2.62,2.4,5.75,3.76,6.6,8.54,1.41,7.95,7.13,15.08,11.83,21.57,3.92,5.41,6.23,12.01,12.3,15.4,1.54,4.57,5.16,8.79,10.37,9.55-1.69,1.31-2.45,2.26-2.7,2.97-.4,1.09,1.09,2.42,2.12,2.06.75-.26,1.69-.93,3.07-2.81-.25,3.41,2.88,5.38,4.25,7.83,2.29,4.14,4.61,4.54,8.26,6.91l23.01,14.94c2.79,1.81,4.88,4.5,6.3,6.79,5.35,1.19,10.24,1.2,14.59,4.95l14.68,4.11,15.28,6.95,12.08,1.87,13.55,1.56,9.11.62,34.27.63c-.13-1.25.06-2.76.56-2.57l3.59,1.35c6.48-.93,13.17-1.94,19.26-3.75l14.99-4.42c1.48-3.17,2.57-3.37,6.32-4.04l9.52-1.72c4.72-2.87,8.71-5.41,14.05-5.13.97-1.66,4.44-.56,3.39-2.29-.48-.81-1.7-1.69-4.39-1.22l15.31-7.11,19.12-14.62c-.13-1.26-.16-2.28.19-2.87.59-.96,3.14-1.13,4.07-1.97l10.54-9.57c2.66-2.42,5.04-1.82,6.25-6.57l10.36-11.12c1.29-6.55,7.95-9.32,10.73-14.08.56-2.28.29-6.51,3.5-8.76,1.57-1.1.94-6.41,5.05-5.72-1.26-2.34-1.97-3.63-2.54-6.25l3.42,1.9,9.15-24.7c1.23-3.34,4.2-5.51,3.64-10.12l3.22-19.09.76-27.93v.09ZM1798.67,536.41c-.1.31-.66.47-1.34.6.63.48,1.12.96,1.07,1.38-.46,5.64-1.84,18.09-3.07,23.22-3.78,6.72-6.85,13.93-9.2,21.62-7.42,10.26-14.77,20.4-22.03,30.39,1.62,2.6-1.78,4.98-3.95,2.84-3.67,2-6.7,4.53-9.08,7.57.4.88.66,1.63.4,1.91-2.62,2.87-13.06,8.45-16.81,8.14-.68,1.87-1.93,3.03-3.75,3.67-20.66,7.33-40.56,10.2-62.42,7.22-11.33-1.54-23.6-3.63-31.93-11.59-6.63-.9-14.97-6.88-19.24-11.76-.31.25-.63.16-.85.18-4.39-2.56-8.17-6.16-11.34-10.77-30.57-26.77-41.4-76.77-28.55-116.34,2.07-6.39,6.25-16.06,11.71-19.38,5.75-11.55,14.71-26.45,27.08-30.98,5.3-2.65,10.61-5.8,15.89-9.46,0,0,9.02-4.36,27.05-13.11,2.59-1.12,4.86-2.57,6.85-4.39,14.58-1.04,29.01-1.2,43.57.13l6.97,4.19c16.24,4.19,30.9,12.61,44.03,23.04,4.2-.18,5.78,1.07,2.44,4.17l3.76,5.72c16.71,11.79,38.71,63.63,32.75,81.82h0Z"/>
      <g>
        <path class="st16" d="M1881.28,199.11c1.76,51.36,1.51,107.7.34,160.03l-.26,186.6c-.06,45.16-20.59,85.66-50.15,118.4l-17.62,16.38c.04,1.82-.21,3.79-1.6,4.83-9.89,7.33-21.01,15.3-32.65,18.07-1.12.51-1.84.4-2.16-.37-1.45-2.13-1.82-4.36-1.1-6.7,11.58-4.81,22.12-11.45,31.62-19.96l.79-2.94c11.61-8.21,21.95-17.93,31.02-29.15,2.23-5.22,5.78-9.85,10.62-13.9,1.07-5.29,3.32-10.2,6.76-14.74-1.2-3.82-.73-6.13,3.57-6.72.96-1.23,10.93-26.61,11.58-28.99,1.37-5.01,2.65-15.84,3.22-21.37.94-9.04,1.48-22.72-1.31-30.95l1.88-5.08c-.29-104.36-.37-208.68-.24-312.93-18.78,10.11-37.88,20-57.3,29.7l-4.29,6.14c-5.97.59-11.04,1.16-7.67,8.35-1.22,32.99-1.59,66.02-1.12,99.1,3.72,20.62-1.95,33.02-22.64,17.44-3.54-6.14-7.61-7.89-12.21-5.25-6.92-2.59-9.49-6.04-7.74-10.36-2.88-2.66-1.98-3.63,1.68-2.31l27.8,14.61c3.23.66,5.45-.21,6.64-2.6.5-39.5.07-78.93-1.26-118.26,1.88-5.32,6.04-8.98,12.46-10.95.81-1.82,1.37-2.4,2.85-.71,1.37-.84,3.97-2.16,5.36-2.87-.31-.66-.54-1.31-.5-1.94.09-1.03,11.46-4.81,13.93-5.36-.21-.98-.31-1.78-.04-1.93,6.01-3.34,11.49-6.32,17.93-8.96.43-.18.97-.06,1.56.13l30.24-14.5h.01Z"/>
        <path class="st6" d="M1777.17,703.05l2.16.37c-.44,1.1-.96,2.15-1.72,2.94-3.19,3.31-15.87,7.91-21.13,9.7-11.89,4.07-26.99,7.51-39.49,8.66-15.36,4.03-34.78,3.97-50.86,2.44-9.82-.94-40.31-5.44-46.88-9.85-1-.68-1.72-1.75-2.35-2.95-.32.71-.93.63-1.16.73-2.95.5-17.72-5.97-17.96-6.91-.18-.68-.1-1.41.04-2.17-.38.03-.88.01-1.09.15-5.66-1.47-9.65-4.04-12.01-7.73-26.2-16.43-48.08-38.16-64.3-64.67-3.63-1.41-6.02-5.28-7.2-11.56,0-.47-.06-1.22-.25-1.63-5.55-.76-8.38-11.98-8.48-17.77l-5-15.75.29-1.72c1.81-4.03,3.6-2.26,5.91.82l6.64,21.15c5.03,4.98,8.82,11.61,11.36,19.88,8.33,14.43,18.05,25.04,29.15,36.63,3.5,3.66,6.73,7.35,9.77,11.55,12.65,7.01,24.26,15.22,34.84,24.67,14.83,4.01,29.57,9.4,43.73,15.81,21.4,3.39,42.95,4.89,64.69,4.47,2.53-1.95,4.64-3,7.33-1.09,11.45-1.73,26.55-4.11,35.49-11.08,9.05-2,17.9-4.67,26.51-8.02l1.91,2.92h.03Z"/>
        <path class="st45" d="M1709.75,337.01c.79-1.94,1.78-1.51,1.45.69,18.21,2.12,36.85,6.2,53.11,14.74l-1.68,2.31-2.5,2.23c-29.74-8.8-44.6-13.21-44.6-13.21-10.08-1.65-47.24-1.9-57.37-.44-8.79,1.26-37.41,9.46-45.54,13.09,6.01,7.19-1.19,7.54-7.6,6.2-7.22,1.4-14.09,4.58-20.63,9.6-5.64,6.14-10.37,7.71-14.2,4.72-2.35,1.13-2.47.57-.35-1.69-.32-2.23.66-3.41,2.31-4.56,12.28-8.58,25.08-16.24,39.28-20.68.24.09.54.1,1.1.25-.43-1.34-.18-2.23.97-2.65,9.85-3.61,19.97-6.05,30.45-6.92l20.41-3.23,45.38-.46h0Z"/>
        <path class="st53" d="M1499.82,585.32c-.09.38-.41,1.34-.29,1.72-17.05-55.41-7.95-115.69,25.35-163.07l2.26,3.22c-7.17,14.77-13.59,29.89-19.26,45.33-2.98,1.16-4.39,4.63-4.2,10.37-10.05,32.48-7.63,67.07-1.29,99.9l-2.57,2.53h.01Z"/>
        <path class="st45" d="M1570.21,376.95c5.41,1.97-4.56,12.61-8.1,11.56-9.63,8.71-18.21,18.37-25.75,28.96-3.85,5.94-7.69,8.11-11.49,6.5,10.14-16.71,22.07-32.7,38.18-43.97-.59-2.69,4.75-6.67,6.8-4.76l.35,1.69h0Z"/>
        <path class="st6" d="M1735.45,636.08c-2.78.71-3.19-.38-.79-2.01l16.41-10.07c1.25-3.14,4.28-5.66,9.08-7.57l3.95-2.84c7.46-10.23,14.9-20.6,22.34-31.15,2.26-7.27,5.19-14.15,8.76-20.62.18-8.76,1.72-16.94,4.61-24.57-1.48-29.54-11.26-61.73-33.77-82.47l-3.89-5.91c.09-1.37-1.35-3.32-2.44-4.17,2.01-.12,3.37-.34,5.67-1.57,2.7,8.76,10.32,13.08,15.41,19.56,2.25,2.87,2.42,6.99,7.08,8.19,2.23,2.41,4,8.41,5.61,11.58-.44,5.32.88,9.38,5.25,11.32-1.72,4.69.07,8.36,2.54,11.61l1.53,20.72-.24,20.76c-.06,4.66-2.95,8.41-.15,13.84l-3.07-3.39c-.46,4.64,1.29,10.37-1.13,13.83-6.85,9.79-9.96,23.57-19.87,33.17l-7.91,7.66c-3.17,4.98-5.78,6.14-10.14,9.54-7.55,5.88-16.46,12.86-24.89,14.59h.03Z"/>
        <path class="st59" d="M1589.43,469.1c1.32.97.94,3.04-1.15,6.2-22.16,37.46-20.34,84.32,5.29,120.5l22.89,25.98c-8.88,1.12-8.58-11.81-17.74-11.86.43-1.53.46-3.17-.04-3.97-.6-.96-2.44-1.51-4.33-.68-.09-5.53-6.58-8.49-8.63-13.45-2.72-6.6-3.78-13.06-9.08-18.93-1-1.1-1.13-4.53-2.73-5.16,2.19-8.01-3.26-16.27-3.35-23.44l-.37-27.83,4.58-17.91-1.45-11.9c1.72,1.66,1.41,3.72,1.37,6.52,4.11-1.63,2.07-5.92,3.64-8.54l7.38-12.21c.4-.66-.82-3.2.68-3.75.76-.26,2.23.24,3.01.43h.03Z"/>
        <path class="st54" d="M1636.57,633.36c30.55,15.14,67.21,15.62,98.1.71l.79,2.01c-2.37,3.25-6.36,4.82-11.27,6.02-29.71,7.24-59.91,7.29-87.7-3.44,3.17.51,4.09-.85,3.84-2.4l-7.14-1.82c-.48-1.78.65-2.13,3.39-1.07h-.01Z"/>
        <path class="st10" d="M1715.7,421.65c-18.91-4.88-38.66-4.81-57.4.09-5.19,3.57-10.43,5.54-16.63,7.3-8.49,5.57-17.18,10.26-26.02,14.06-.44.85-.71.82-.79-.12l2.45-7.45,7.79-1.72c2.73-.6,4.16-4.67,4.86-8.74,6.14,3.56,8.49.5,13.24-2.03,2.91-1.56,9.55.76,9.77-5.2,2.07,3.78,3.88,3,6.39,2.06,2.22-.82,5.07-1.19,3.89-5.63,8.33,2.41,16.88.04,25.92.24,6.76.15,13.37,2.03,20.43.35l6.08,6.8h.01Z"/>
        <path class="st35" d="M1636.57,633.36c-1.13.48-2.5.71-3.39,1.07-4.41-1.13-6.17-3.61-10.17-6.64-2.17-1.66-7.07-1.62-5.67-6.19l19.24,11.76h0Z"/>
        <path class="st55" d="M1615.66,443.11c1.2.56,1.07.96-.28,1.22-12.84,7.99-18.71,20.06-27.08,30.98l1.15-6.2,4.17-5.89c.5-.71.63-3.73,1.43-4.32.72-.53,1.78-.53,3.47-.84,3.29-4.34,5.47-10.51,10.23-12.51l6.11-2.56c.21-.09.53-.18.79.12h.01Z"/>
      </g>
    </g>
  </g>
  <g>
    <path class="st28" d="M1189.65,874.84c-1.04-18.16-1.37-36.52-1-55.06l12.51.75c1.69.1,2.26,3.63,2.79,4.91,11.8-8.64,27.61-8.55,36.97,3,6.72-7.44,15.31-9.73,24.75-8.91,10.86.94,19.63,8.89,19.65,20.1l.04,37.85-13.14-.31-.76-35.77c-.16-7.64-8.16-10.83-14.37-9.82s-11.79,5.28-11.87,12.53l-.43,32.98c-4.54.96-9.08,1-13.43.01l-1.16-36.99c-.22-7.16-8.55-9.48-14.21-8.61-6.26.96-11.65,5.58-11.77,12.76l-.57,32.71-9.74.78c-2.29.18-4.23-1.03-4.23-2.92h-.01Z"/>
    <path class="st49" d="M244.28,856.18c1.43,3.89,3.91,5.51,7.26,7.47,2.85.37,15.74,1.29,17.38.07-.51-2.76,2.97-3.61,5.5-3.29,3.48-3.67,4.91-8.41,4.97-14.28l.48-43.1c4.66-.81,8.67-.75,13.61.06l-.06,39.54c0,7.1-.53,14.39-3.45,20.04-.26,7.11-3.45,9.48-9.07,12.81-8.17,4.82-21.22,3.86-30.89,3.12-.28-.01-.5-.75-.71-1.68-4.61-1.76-8.54-4.91-11.95-8.42-1.76,1.5-3.6.03-2.97-2.01-.03-2.95-1.07-4.5-3.13-4.6-2.29-1.29-5.39-5-5.78-8.01-.62-5.07-.62-50.17.84-52.34,1.28-1.91,20.48-3.53,16.61,5.75-.73,16.75-.75,33,1.37,48.9v-.03Z"/>
    <path class="st26" d="M359.13,823.95c2.54-2.56,9.27,8.07,10.2,10.61,1.35,3.7,1.1,40.82-.72,43.19-5.98,7.74-21.79.03-16.66-11.11-.43-9.07-.26-18.15.46-27.21-.29-7.49-10.18-8.83-16.13-7.55-6.83,1.47-10.83,6.95-10.87,13.71.87,10.1,1.09,20.37.63,30.82-4.94,1.63-9.65,1.47-14.75.57l-.19-56.28c3.69-.81,7.66-1.41,11.32-.18,1.68.57,2.19,3.69,2.76,5.01,10.46-7.64,24.14-8.19,33.96-1.57h.01Z"/>
    <path class="st60" d="M1568.77,877.69l.62-56.05c5.08-3,12.61-2.45,13.68-.16.57,1.23.43,2.88.68,4.98,9.05-7.86,21.97-9.51,32.77-3.66,6.79,3.67,10.36,11.27,10.37,18.9l.06,35.46c-4.76.84-8.99.91-13.56-.04l-1.26-36.81c-.28-8.17-10.7-9.89-16.65-8.45-7.13,1.73-11.2,7.39-11.21,15.17l-.07,30.29-15.41.4h0Z"/>
    <path class="st28" d="M1035.26,820.46v57.1h-12.95l-.79-5.78c-6.22,4.97-13.36,6.88-21.56,6.2-11.93-.98-20.63-9.99-20.66-22.17l-.07-35.12c4.67-1.28,9.02-1.31,13.36,0l.94,35.71c.21,7.82,9.1,10.36,15.47,9.29,7.2-1.2,12.3-6.74,12.39-14.94l.34-30.11,13.53-.19h0Z"/>
    <path class="st49" d="M955.99,804.12l6.01,2.82c1.19,1.63,1.13,3.78-.19,6.41l-.1,1.1-1.78,2.25-13.05-3.28c-6.58-.43-13.37-1.09-19.03,2.59l.71,1.88c-4.48,4.89-4.32,5.45-.19,9.6.69.71.28,1.88-.41,2.91,9.68,4.14,19.69,7.69,29.99,10.61,3.19,1.78,7.2,5.03,6.74,8.83,3.85,6.76,0,19.18-8.2,22.92-12.26,5.6-28.64,5.26-40.98.06-7.92-3.34-7.82-8.42-.43-11.37,9.04,5.95,20.72,8.13,31.02,4.63l-.66-1.93c11.71-6.5,2.76-16.22-7.89-14.94-1.53-1.51-3.2-2.79-5.06-3.82l-1.5.54c-4.13-.21-11.07-.93-11.98-5.13-10.35-1.26-15.18-18.24-8.36-26.07.25-.1.76-.06,1.18.04,9.43-13.71,29.39-14.2,44.17-10.67h-.01Z"/>
    <path class="st26" d="M583.96,861.62c6.29,1.48,12.65,2.62,19.12,3.41,12.53-.28,14.58-6.7,2.09-9.6-16.11.75-24.36-4.83-24.79-16.74-3.81-.76-1.88-9.57,1.57-9.26.88-3.92,2.4-6.29,6.76-5.54,11.34-6.7,26.8-5.6,38.77.13-1.06,4.78-2.53,7.51-5.08,10.39-12.92-6.27-28.18-4.42-27.52,2.85.22,2.38,2.12,3.98,4.81,4.56l17.91,3.78c7.73,1.63,12.28,6.79,12.43,13.96.12,6.3-3.01,12.23-9.65,15.22-12.93,5.83-28.05,4.1-40.79-2.88l4.39-10.29h0Z"/>
    <path class="st9" d="M424.85,830.95c3.98,3.89,6.55,8.99,7.71,15.28,2.38,6.92,5.38,8.7,8.96,5.32.15-.41-.01-1.16-.07-1.59,1.28-4.48,2.57-8.83,3.89-13.03,3.85-2.97,6.11-7.66,6.79-14.05,2.35-4.47,19.81-5.54,15.61.81l-7.52,16.91c-3.94,12.58-8.43,25.03-13.48,37.31l-2.16.15-14.59-.62-23.89-56.77c4.23-.87,11.08-2.17,13.95.88,2.09,2.22,3.82,6.98,4.81,9.38h0Z"/>
    <path class="st52" d="M1494.46,833.87c.28,4.58-10.57,6.32-12.56,3.04-.48-1.78-2.97-2.42-4.09-3.42-5.01-2.06-9.6-1.84-13.75.71-1.88,1.9-3.5,2.45-4.85,1.72-.87,3.72-2.57,6.33-5.1,7.85l-.4,1.5c-.84,2.65-.85,5.45.12,8.07l.09,1.12c1.87,2.16,3.39,4.66,4.56,7.47.79.46,1.5,1.32,2.51,1.51,1.63.68,2.78,1.57,3.41,2.69,7.42,1.78,14.53,0,21.37-5.38,4.29.81,9.43,4.88,5,8.51,1.01,13.34-35.34,10.76-40.29,6.38-.38-.34-.28-1.25-.01-2.31-6.52-1.66-10.43-7.08-11.73-16.28.43-.12.48-.47.48-.79-7.19-12.74,4.31-35.14,19.78-35.18,14.11-4.09,31.59-.6,35.47,12.81h0Z"/>
    <path class="st51" d="M1382.38,877.19c-4.82.81-8.6.72-13.42-.18l-.26-56.34c4.26-.91,7.91-1.34,12.09-.16,1.29.35,1.5,4,1.56,6.13,5.17-5.72,12.2-6.92,19.22-6.95l.32,12.27c-5.55.09-10.1.43-14.03,3.84-3.37,2.91-5.42,7.35-5.44,12.81l-.04,28.57h0Z"/>
    <path class="st5" d="M398.29,876.42c-4.17,2.41-8.92,1.29-14.14.72v-56.55c4.69-1.03,8.79-.94,13.7.15l.44,55.68Z"/>
    <path class="st28" d="M654.81,877.34l-13.52.03v-56.75c4.75-1.26,8.85-1.18,13.49-.01l.04,56.72h-.01Z"/>
    <path class="st12" d="M723.49,877.78l-8.27-.21c-.34-2.79.04-3.59-1.62-6.38-7.55,8.8-17.71,5.94-26.51,7.05-5.63-.91-13.62-2.65-13.31-9.54-5.03,1.37-6.38-8.73-6.91-13.05-.96-7.73-.5-15.18,3.04-22.29,5.85-7.85,12.96-13.02,23.75-13.97,1.2-2.7,6.47-3.35,6.83.15,2.07.72,4.07,0,5.94.06,1.34,1.29,2.29,2.54,2.87,3.78.16,1.23-.19,2.2-1.18,2.85-25.51-7.01-42.73,10.74-31.48,35.53-1,3,.09,5.95,3.26,8.86,1.45-1.73,2.73-2.91,3.13-.85,7.99,2.84,15.65,3.28,22.95,1.31,3.59-3.14,7.02-4.42,10.32-3.86,8.2,9.64,7.79-1.16,5.78-8.27.47-18.59.94-37.18,1.44-55.78l-4.17.34c.66,6.19.24,12.05-1.28,17.59l-3.5-.5-1.95-.46c1.63-6.89,2.09-14.3,1.4-22.23l14.69.04.29,77.53c-1.26,3.44-1.87,4.38-5.54,2.32h.03Z"/>
    <path class="st6" d="M847.48,823.56c0,2.87-1.13,2.98-2.1.26l-1.9,2.4c-10.96-3.04-16.94-1.13-25.2,5.79-3.63,2.73-5.47,6.88-5.51,12.42l-2.26,4.09c3.26,5.83,4.57,11.36,3.91,16.53,10.27,6.08,20.09,7.54,29.46,4.39l2.88,1.82c2.35-3.01,2.72-3.23,3.51.62l-8.2,6.95-15.22-1.38c-13.92-3.28-21.84-14.96-21.78-29.11.07-15.37,9.67-26.72,24.73-28.9,5.79-.84,12.92.26,17.68,4.13h0Z"/>
    <path class="st4" d="M1426.04,808.63c-3.19,2.91-6.42,3.13-9.6,1.87-4.01-1.59-5.86-4.86-5.05-9.58.54-3.1,3.67-6.44,8.02-6.23,3.67.16,7.01,1.09,8.42,4.2,1.4,3.1,1.19,7.01-1.79,9.74Z"/>
    <path class="st8" d="M392.37,810.73c-6.29.71-10.18-2.72-10.04-8.36.1-4.06,4.01-8.49,9.6-7.64,4.53.69,8.11,3.1,8.07,7.44-.03,3.61-2.23,7.96-7.63,8.57Z"/>
    <path class="st21" d="M647.28,810.96c-4.58-.18-7.63-3.56-8.11-7.52-.44-3.73,2.35-7.27,6.54-8.45,5.58-1.56,10.07,2.26,10.68,6.02,1.04,6.38-3.1,10.18-9.11,9.95Z"/>
    <path class="st17" d="M967.35,850.23c1.91,11.01-3.17,21.9-15,25.8-14.96,4.95-32.06,2.29-45.04-6.44,1.63-4.06,2.72-7.38,4.98-10.32.68-.88,3.82.59,4.07,1.19,8.61,6.01,19.25,6.94,29.73,5.6-6.99,4.95-21.47,3.09-30.48-2.6-2.04-1.29-4.92,1.75-4.07,4.6s1.69,2.87,4.75,3.73c12.87,3.64,26.49,5.33,39.56-.18l7.76-6.52,1.09-15.28c.51-1.25,1.03-1.2,1.54.09l1.1.31h.01Z"/>
    <path class="st0" d="M955.99,804.12l-14.62-1.06-17.49,3.34c-5.14.98-8.35,6.11-12.06,8.39,4.86-14.52,31.7-16.52,44.17-10.67h0Z"/>
    <path class="st19" d="M1493.75,867.6c-.9.46-2.42.96-2.98,1.65.73-1.62-.46-5.51-2.31-6.55-5.53-3.13-10.84,9.38-24.06,3.42,5.03-.38,10.08-1.32,15.18-2.84,1.44-1.4,3.25-4.01,4.95-4.16,2.45-.22,9.52,4.47,10.07,6.23.21.68-.62,1.65-.84,2.26h-.01Z"/>
    <path class="st48" d="M961.71,814.43c-.16,1.9-.71,3.57-2.16,4.82l-12.67-5.85,14.84,1.03h-.01Z"/>
    <path class="st48" d="M961.81,813.35c-1.25-1.95-.82-4.25.19-6.41,1.19.56,3.17.53,2.63,2.53-.38,1.4-1.79,2.91-2.82,3.88Z"/>
    <g>
      <path class="st37" d="M1061.87,822.88c-.94,3.19-3.32,5.1-6.26,4.58,2.09-2.41,3.66-3.26,6.26-4.58Z"/>
      <path class="st28" d="M1094.43,798.56l-.32,26.85c-10.08-7.26-21.92-7.79-32.24-2.54-1.7,2.04-3.75,3.67-6.26,4.58l-5.14,5.95c-5.48,10.95-5.78,34.62,7.58,39.72-.04.75.15,1.47.82,1.9,10.3,6.44,21.56,4.56,33.24,1.69l3.04,1.91c4-1.54,8.14-1,13.21-1.48l.13-78.44c-4.88-1.34-9.45-1.06-14.06-.13h0ZM1077.18,866.23c-9.74-.41-16.66-8.76-15.87-19.31.69-9.18,7.46-15.53,15.96-15.86,8.96-.35,16.93,6.05,17.47,16.62.59,11.45-7.91,18.94-17.58,18.54h.01Z"/>
    </g>
    <path class="st22" d="M249.27,876.92c-4.98-.56-10.46-2.85-11.95-8.42,4.75.9,8.01,5.66,11.95,8.42Z"/>
    <path class="st22" d="M234.36,866.48c-1.91-1.43-2.19-2.66-3.13-4.6,1.6-1.69,3.12-1.66,4.07-.24,1.03,1.53-.03,3.31-.94,4.83h0Z"/>
    <path class="st26" d="M1348.29,827.36c-5.91-6.16-15.02-8.45-24.57-7.71-13.2,1.01-23.66,10.95-25.64,23.47-2,12.64,3.13,25.55,15.3,31.49,13.46,6.57,31.61,3.78,38.47-5.41.69-.93-.28-2.23-.4-3.14-2.78-7.51-6.11-9.2-10.01-5.1.71.73.34,1.53-.25,2-7.98,2.78-13.87,2.76-22,.63-4.03-2.44-6.95-5.55-7.3-10.51l43.81-.1c1.91-9.67-.94-18.85-7.41-25.61h0ZM1311.71,844.06c.6-8.45,7.17-12.9,13.84-13.46,8.26-.69,15.41,3.54,17.72,13.09l-31.56.37h0Z"/>
    <g>
      <path class="st32" d="M1133.76,822.35c-2.44,1.47-3.64,4.76-8.43,2.88-.16,3.47.88,5.2,2.15,6.82,1.09,1.4,3.28,1.66,4.54,2.07l-3.42,2.47c-1.44-2.69-5.04-6.19-5.25-10.43,1.23-1.6,4.97-1.6,6.26-5.08l4.17,1.28h-.01Z"/>
      <path class="st52" d="M1173.15,838.62c-.07-7.36-5.05-11.43-9.67-15.91-6.07-5.91-13.8-7.01-22.5-5.89-3.86.5-7.23.94-7.22,5.54-1.68-.07-9.13,3.13-9.42,3.97-.82,2.4,4.2,10.8,7.67,7.79,4.88-3.5,11.39-3.67,17.59-2.91,6.32.79,10.57,5.89,10.01,12.3l-22.6.73c-9.11.29-15.05,7.29-15.47,15.22-.46,8.71,4.03,15.33,13.05,17.6,8.93,2.26,18.41,1.4,25.29-5.2.24,1.93.81,5.08,1.95,5.33l11.68.37-.37-38.97v.03ZM1156.78,864.1c-5.79,4.06-12.45,5.01-18.84,2.07-2.81-1.29-3.38-5.14-2.7-7.89,1.54-6.26,17.33-6.64,23.26-4.45,3.01,1.12.9,8.45-1.72,10.27h0Z"/>
    </g>
    <g>
      <path class="st25" d="M1675.66,873.42c-7.66,5.88-19.94,6.29-28.43,1.19-6.98-4.19-8.86-11.18-7.26-17.75l3.67,11.89c4.25.59,4.89,2.66,7.05,4.7,3.14,2.97,12.09,4.45,15.41,1.65,2.65-2.23,6.51-.16,9.55-1.69h0Z"/>
      <path class="st36" d="M1650.96,821.88l-6.26,4.23c-2.1,1.31-1.19,4.28.24,5.6,1.32,1.22,2.95,2.1,4.91,2.32-.84.4-1.45,1.38-2.59,1.31-1.31-.09-2.45-.5-3.17-2l-3.12-6.42c1.88-2.94,4.97-3.44,6.92-5.03,1.1.19,2.13.16,3.07,0h0Z"/>
      <path class="st60" d="M1691.31,839.16c-.03-8.33-5.55-12.53-10.68-17.35-5.8-1.72-11.55-3.22-17.24-4.47-4.69,1.63-8.83,3.14-12.43,4.54-9.67,1.69-11.83,11.52-1.12,12.15,5.13-2.38,10.95-3.45,17.22-2.95,6.82.54,11.49,6.29,10.49,12.77-17.74-.57-34-1.63-37.57,13.03-.28,19.72,20.22,24.33,35.69,16.55,2.01-1.01,3.03,2.54,3.98,3.41,2.76,1.76,8.33.75,11.81.34l-.15-38h-.01ZM1673.91,864.73c-3.78,2.47-7.6,3.59-12.76,3.1-4.36-.41-7.73-3.03-8.11-7.1-.93-9.73,19.1-9.11,23.53-6.73,3.44,1.85-.04,9.02-2.65,10.73h-.01Z"/>
    </g>
    <g>
      <path class="st23" d="M1511.28,846.42c-.56,3.7-4.47,5.83-6.85,8.66.29,11.21.28,12.77,9.36,18.94,1.95,1.32,7.38-1.79,9.42,2.53.54-5.25,5.45-.56,14.77-3.01-8.38,6.16-20.9,6.38-29.74.5-5.35-3.54-5.95-8.07-6.1-13.73-.21-7.54,2.79-11.4,9.14-13.89Z"/>
      <path class="st28" d="M1553.71,838.16c-1.44-4.69-3.1-11.71-8.58-14.56-12.83-6.64-28.18-5-41.01,1.84-.06,3.89,1.78,7.11,4.57,10.49,6.88-3.7,13.81-5.91,21.51-4.75,6.27.94,10.05,5.85,9.98,12.24l-18.53.29c-4.2.07-7.45,1.54-10.35,2.69-8.49,5.51-11.21,16.66-4.2,24.5,7.17,8.02,22.03,6.08,30.92,2.6.54-.57,1.51-1.53,2.15-1.18.73.41,1.41,2.65.71,4.32,5.01,1.97,12.36,1.23,12.77.24l.9-2.2c.53-12.31.26-24.48-.81-36.53h-.01ZM1539.33,861.49c-3.72,7.57-13.23,8.89-20.44,5.88-2.4-1.93-3.5-4.92-3.45-7.85.03-2.32,2.04-5.67,4.86-6.05.37-.96,1.01-1.04,1.91-1.13,5.23-.5,15.64-1.37,18.32,2.29l-1.18,6.86h-.03Z"/>
      <path class="st23" d="M1518.89,867.36c7.67,1.51,15.33.54,20.44-5.88-1.48,8.66-14.78,10.4-20.44,5.88Z"/>
      <path class="st23" d="M1540.51,854.62c-6.16-2.66-13.61-2.04-20.22-1.16-.38-.98.16-2.01,1.4-2.01l18.77.03c.56,1.06.16,2.51.06,3.14h0Z"/>
    </g>
    <path class="st27" d="M966.23,849.92l-1.54-.09c-2.59-4.83-8.13-9.21-14.25-9.82-7.35-.73-13.71-5.53-20.95-7.55-.88-.25-1.34-1.72-1.53-2.07l26.57,7.66c6.1,1.79,11.18,5.86,11.73,11.87h-.01Z"/>
    <g>
      <path class="st54" d="M757.95,854.04l.82,3.59c-3.78,6.13,2.66,7.1,7.69,7.02,4.6-1.75,7.94-1.62,10.02.41-.21,1.48-.6,2.38-1.06,3.17l.76.76c5,3.61,10.62,4.66,16.78,4.44,0,.9.47,2.69-.13,3.54-.57.79-12.76,2.78-14.24-3.78-8.93,6.48-20.95,6.51-30.73,1.25-3.94-2.12-4.36-5.17-5.54-8.17,3.19,1.23,5.58,3.42,6.52,7.17l22.72,1.22c.96-2.72,2.15-3.85,3.76-4.81l-1.73-.5-18.44-.51c-1.68-3.25-2.78-6.45-2.53-9.64s2.63-4.57,5.33-5.19h-.01Z"/>
      <path class="st24" d="M792.67,838.33c-.06-8.11-5.95-14.96-13.8-17.16-11.58-3.25-25.35-2.01-35.33,4.58-1.12,4.11,4.09,10.43,7.45,9.67,6.73-2.85,13.43-4.01,20.1-3.48l3.7,1.84c5.29,7.99,1.41,11.11-11.64,9.33l-7.04.82c-4.61,1.79-9.52,3.42-12.04,6.82-3.84,5.16-3.75,10.54-1.76,15.55,5.13,9.45,13.28,10.46,23.45,9.95,4.6-.24,11.04-1.03,9.55-6.35.28-.16.59-.4.85-.87-.96,2.13.65,3.76,4.79,4.92,3.63,1.57,10.14,3.42,11.98-.48l-.28-35.14h0ZM777.49,863.32c-.38.13-.94,1.15-1.03,1.75-5.1,1.91-10.76,3.64-16.97,1.79-2.62-.78-4.66-3.64-4.89-5.92-.25-2.44,1.4-4.76,3.35-6.89,7.24-1.62,14.27-.96,22.12-.96,1.76,2.94.46,7.92-2.56,10.24h-.01Z"/>
      <path class="st54" d="M777.49,863.32c1.81-3.35,2.48-6.85,2.56-10.24,1.37-1.25,3.29.63,1.32,1.79,1.07,3.88-.21,7.24-3.88,8.43h0Z"/>
    </g>
    <g>
      <path class="st61" d="M519.08,825.34l4.47,4.38c1.23,1.2,1.32,4.16,1.93,5.61l-2.7,1.63c-3.76-1.72-16.5-11.84-10.74-14.97,2.31-.04,5.3,1.62,7.07,3.34h-.01Z"/>
      <path class="st61" d="M481.2,825.69c-.18,2.5-2.03,5.3-3.86,6.85-5.69,4.75-4.17,10.02-4.25,15.65-.06,5.13-1.43,7.73,2.15,12.53,2.53,3.41,3.75,7.85,9.04,10.11,1.69.72,4.34.93,4.89,3.63.04.85-.69,1.07-2.19.65-10.67-4.61-16.72-14.64-16.43-26.58.24-9.4,2.66-18.05,10.65-22.82h0Z"/>
      <path class="st14" d="M515.32,875.14c-8.14,4.54-19.96,3.57-28.36-.06l2.19-.65,26.17.71Z"/>
      <path class="st14" d="M518.07,873.7c1.37-1.88,2.34-7.19-.68-8.29s-6.23.63-8.49.63l8.7-5.5c2.16,2.19,5.54,4.2,6.38,7.38s-3.63,5.57-5.92,5.78h.01Z"/>
      <path class="st61" d="M511,822.01l-22.88.24c7.14-3.12,15.8-4.51,22.88-.24Z"/>
    </g>
    <path class="st60" d="M850.28,871.87c-.98.32-2.59-.54-3.51-.62-1.26-1.59-1.93-3.42-1.98-5.53,13.14-8.17,11.52-26.22-.87-34.53l.19-2.15c.41-3.81,2.41-1.72.91-1.06-2.2.97-2.38-3.14.37-4.16l2.1-.26c.69.56,1.76.93,2.62.98,1.34,1.44,2.19,1.54,2.56.28l-1.03-26.23h14.18l-.03,78.6c-3.6,1.04-7.99.59-11.52.31-1.37-.32-2.13-3.86.04-6.57-1.44.04-2.75.5-4.01.91h-.01Z"/>
    <path class="st6" d="M852.66,824.84c.1,2.44-.82,5.25-1.93,7.63-1.2-3.16-.62-5.57-.63-7.91l2.56.28Z"/>
    <path class="st18" d="M679.92,870.61c-6.38-7.11-6.07-10.86.93-11.26,9.29,11.36,23.86,10.84,33.59.9-.63-2.13-.37-4.94.84-8.42l-.12-7.96s-2.09-3.97-6.27-11.9c-3.92-3.92.76-8.05,4.42-4.06,1.12-1.75,1.54-3.22,1.26-4.39l.03-2.95c1.12-.79,1.94-2.2,1.93-4.23l-.1-16.18,10.24.07-.19,17.34c-2.13,11.05-1.22,21.18-.38,32.09.35,4.53-2.48,9.1-.03,14.37,1.57,3.39-1,9.93-4.57,10.2-2.91.22-4.92-3.5-6.36-4.45-3.61-1.45-6.95,3.37-9.58,4.41-8.57,3.42-17.84-.68-25.6-3.59h-.03Z"/>
    <path class="st3" d="M709.31,823.38l2.66,1.12c2.76.32,3.51,1.53,1.34,3.42-2.15.41-3.91,1.73-4.42,4.06-4.81-2.03-9.63-2.62-14.46-1.73v3.41c-21.56,9.86-6.7,40.88,13.7,25.44l3.19.79c1.73-3.2,2.79-3.09,3.14.38-1.37,3.39-7.14,9.24-10.99,8.99l-20.26-1.32c.75-2.81.29-3.84-.56-4.29-1.48-.79-2.92-2.09-3.78-1.62-1.38.78-2.62,3.86-1.34,4.41s2.84,1.26,3.19,1.87c.31.54-.4,1.75-.75,2.29-4.98-1.88-5.36-7.05-7.61-11.9-4.44-9.51-2.13-19.22,3.89-28.48,4.61-7.08,13.48-8.6,21.97-7.85l11.12.98-.03.03Z"/>
    <path class="st20" d="M845.4,823.82c.59,1.63,1.22,3.01,1.34,5.53l-2.62-.29-.81,1.72c-6.39-2.32-12.76-2.37-17.97,2.63,2.13,1.7-.31,5.69-2.81,3.35-12.92,17.15,2.12,36.81,22.26,28.98,1.78-.01,3.78,1.16,3.66,2.5-.09.98-1.23,2.29-1.68,3.03l-5.97,3.04c-10.43.54-20.41-2.22-28.76-8.13,2.04-7.76-6.55-15.99-3.86-19.4,5.89-7.47-2.79-12.86,14.86-20.59-.57-.85-1.88-.82-2.4-3.07,4.97,1.28,8.98-1.63,13.42-.97l11.34,1.68h-.01Z"/>
    <path class="st12" d="M713.31,827.92l-1.34-3.42,2.15.47c.46.1,1.18-.73.46-1.44.72.12,1.93,1.31,1.7,2-.43,1.31-1.91,2.19-2.97,2.4Z"/>
    <path class="st56" d="M525.48,835.33l-5.95-4.51c-3.63-2.72-6.33-4.82-7.49-8.82h-1.03c-7.47-2.06-15.41-1.37-22.88.26-2.69.03-4.91,2.23-6.92,3.44-15.08,14.25-12.86,41.66,7.96,48.76,7.89,3.14,17.88,2.32,26.17.71.73-.41,1.68-1.35,2.75-1.44,8.82-7.45-.71-13.59-9.17-7.66-11.39-.01-20.94.65-24.54-12.67l43.98-.38c1.87-6.82-.56-12.15-2.87-17.68h-.01ZM484.17,844.03c.76-8.27,7.2-12.71,14.09-13.36,7.48-.69,14.62,2.22,17.49,12.59l-31.58.76h0Z"/>
    <g>
      <path class="st41" d="M555.25,877.16l-13.9.28-.24-51.02c0-1.78-.72-3.85.19-5.08,1.56-2.09,10.96-1.95,12.42-.75,1.1.93,1.1,3.51,1.28,6.04,5.3-5.3,12.21-7.49,19.6-7.1l.46,12.87c-11.07-1.81-19.97,5.23-19.93,14.74l.12,30.02h0Z"/>
      <path class="st51" d="M552.13,860.74c.09,5.55,1.35,10.05-2.22,14.43-2.45-.81-3.97-2.47-6.29-4.01-1.25-10.46-.88-20.71.79-31.42.81-5.19-1.5-11.07.5-15.91.75-1.62,6.64-.9,7.35.75l4.94,11.74c-3.94,3.23-5.33,6.99-5.25,12.23l.21,12.21h-.03Z"/>
    </g>
    <path class="st6" d="M844.11,829.05c8.79,7.2,12.04,15.8,10.33,27.2-.65,4.29-5.45,7.6-9.65,9.48-2.48,1.1-5.11,3.06-8.42,3-5.66-.1-14.22-2.78-17.47-7.88s-2.72-13.31-1.68-18.87c.5-2.69,3.61-4.31,5.32-5.25,3.2,1.37,1,5.95-2.07,5.95l2.42,2.4c-2.82,12.17,7.04,22.34,18.93,16.69l2.76,1.85c1.18-2.26,2.97-4.29,5.38-6.11,1.6-3.32,1.28-10.49.44-14.15-2.19-9.63-14.56-15.52-22.51-8.42l-2.53-1.54c2.1-4.32,7.01-6.79,11.81-5.86l6.97,1.51h-.03Z"/>
    <path class="st12" d="M708.88,831.96c.71.81,1.78,1.57,4.19,1.23-1.09,3.26,1.56,4.64,2.51,7.22,2.16,5.78.93,14.71-1.13,19.84l-3.14-.38c-1-.69-1.82-1.69-1.65-2.94,2.03-13.56,2.69-20.9-13.7-23.76l-1.54-2.95c4.16-2.45,10.45-2.85,14.46,1.73h0Z"/>
    <g>
      <path class="st38" d="M1427.23,820.56c.93,17.03.98,34.4.16,52.12-1.43.96-1.53,2.78-1.53,4.85l-12.93-.16-.03-56.71,14.34-.1h-.01Z"/>
      <path class="st13" d="M1424.77,873.17c-1.44.62-2.45-1.54-2.45-2.81-.65,2.12-.98,4.34-1.66,5.2s-2.92.76-4.67.29c-1.2-.32-.94-2.35-1.22-4.53l-.35-48.88c2.57-1.15,8.95-.96,9.85,1.29l.51,49.42h0Z"/>
    </g>
  </g>
</svg>