<?xml version="1.0" encoding="UTF-8"?>
<svg id="Camada_1" xmlns="http://www.w3.org/2000/svg" version="1.1" viewBox="0 0 1920 1080">
  <!-- Generator: Adobe Illustrator 30.4.0, SVG Export Plug-In . SVG Version: 2.1.4 Build 226)  -->
  <defs>
    <style>
      .st0 {
        fill: #e9f8ec;
      }

      .st1 {
        fill: #f3faf1;
      }

      .st2 {
        fill: #f2fbf1;
      }

      .st3 {
        fill: #f9fbf9;
      }

      .st4 {
        fill: #eff9ef;
      }

      .st5 {
        fill: #f8fdfa;
      }

      .st6 {
        fill: #f2fcf3;
      }

      .st7 {
        fill: #f0faf0;
      }

      .st8 {
        fill: #f0f9f1;
      }

      .st9 {
        fill: #f8fcf8;
      }

      .st10 {
        fill: #f2fbf3;
      }

      .st11 {
        fill: #f3fbf4;
      }

      .st12 {
        fill: #effbf0;
      }

      .st13 {
        fill: #fdfcfd;
      }

      .st14 {
        fill: #ebf8ec;
      }

      .st15 {
        fill: #f3fbf2;
      }

      .st16 {
        fill: #f5fbf4;
      }

      .st17 {
        fill: #edfaee;
      }

      .st18 {
        fill: #fbfcfa;
      }

      .st19 {
        fill: #ebf8ea;
      }

      .st20 {
        fill: #fbfdfc;
      }

      .st21 {
        fill: #f1fcf2;
      }

      .st22 {
        fill: #e5f6ea;
      }

      .st23 {
        fill: #edf9ee;
      }

      .st24 {
        fill: #f9fdfa;
      }

      .st25 {
        fill: #eaf8ec;
      }

      .st26 {
        fill: #f9fcfa;
      }

      .st27 {
        fill: #edfaed;
      }

      .st28 {
        fill: #fafcfa;
      }

      .st29 {
        fill: #f0fbf1;
      }

      .st30 {
        fill: #eefaf1;
      }

      .st31 {
        fill: #effcf2;
      }

      .st32 {
        fill: #e0f3e6;
      }

      .st33 {
        fill: #f4fdf5;
      }

      .st34 {
        fill: #f2fbf2;
      }

      .st35 {
        fill: #e9f8eb;
      }

      .st36 {
        fill: #e3f3e5;
      }

      .st37 {
        fill: #e5f3e5;
      }

      .st38 {
        fill: #e4f5e8;
      }

      .st39 {
        fill: #f1fbf2;
      }

      .st40 {
        fill: #f4fcf3;
      }

      .st41 {
        fill: #effcf1;
      }

      .st42 {
        fill: #ecf8ee;
      }

      .st43 {
        fill: #fefefe;
      }

      .st44 {
        fill: #f2fcf4;
      }

      .st45 {
        fill: #f0faf1;
      }

      .st46 {
        fill: #f6fcf5;
      }

      .st47 {
        fill: #f0faef;
      }

      .st48 {
        fill: #e2f5e2;
      }

      .st49 {
        fill: #fbfcfb;
      }

      .st50 {
        fill: #f1fcf1;
      }

      .st51 {
        fill: #fcfcfc;
      }

      .st52 {
        fill: #fafcf9;
      }

      .st53 {
        fill: #f2fbf4;
      }

      .st54 {
        fill: #edf9ef;
      }

      .st55 {
        fill: #edf8f1;
      }

      .st56 {
        fill: #fafcfb;
      }

      .st57 {
        fill: #eaf7ee;
      }

      .st58 {
        fill: #f0fbf0;
      }

      .st59 {
        fill: #f2fcf2;
      }

      .st60 {
        fill: #f9fcf9;
      }

      .st61 {
        fill: #ecf8ec;
      }
    </style>
  </defs>
  <g>
    <g>
      <path class="st43" d="M749.03,427.99c7.2,3.8,13.75,8.82,19.67,15.07,4.09,3.23,8.44,8.62,11.72,13.07,11.26,15.3,19.82,35.65,19.62,54.88l.09,123.39c-.63,6.78-1.12,13.53-1.48,20.24-16.39.5-32.54.38-48.46-.35l-.07-141.94c-1.06-13.61-7.48-28.84-18.91-36.4-5.65-5.51-13.56-9.29-21.15-12-35.58-12.75-83.27,6.55-86.55,47.28l-.28,143.47c-16.47.92-32.83.78-49.08-.39l.09-145.89,2.09-14.58c.06-.28-.08-.81-.28-1.07,2.92-6.77,5.58-13.77,7.98-20.98,5.51-10.75,12.92-19.94,20.8-28.89,5.57-4.98,11.21-8.89,17.35-12.93,14.56-10.09,33.53-15.66,51.04-18.61,26.29-2.51,53.47,3.21,75.8,16.65Z"/>
      <path class="st10" d="M731.21,475.94c-1.04,2.34-3.1,1.12-2.99-1.09-20.73-17.1-56.66-17.57-78.95-2.99-2.23,3.12-5.1,5.97-8.6,8.55l-5.76,6c-.72,2.57-2.06,4.12-4.03,4.63-3.33,6.45-6.4,13.97-6.41,22.33l-.24,142.66-45,.17c-2.52,0-4.57-.23-6.08-1.01-.63-.2-.91-.54-.9-1.22.43-49.17.77-99.74.13-148.94.08-1.88.62-3.71,2.01-5.07.47-2.09.29-4.45,1.94-6.14-.21.92-.44,2.56,1.43,2.77-2.1,3.55-1.42,7.33-2.51,11.92l-.1,145.53,47.07.08.25-143.04,4.73-21.56c5.12-.04,3.2-6.66,10.79-11.82l5.24-3.56c1.17-4.06,6.77-5.24,10.38-6.96,2.41-1.16,3.46-3.38,6.85-4.34l7.06-2,16.99-1.32,16.66.82,9.27,2.63,6.79,3.57c.54.29,1.73-2.51,1.7-.94-.06,3.3,4.06,2.78,8.44,3.95l3.82,6.4Z"/>
      <path class="st34" d="M756.24,430.98l2.86,1.82c3.29.38,13.88,9.34,15.14,12.03.15.32-.02.79-.29,1.31,16.29,17.62,26.94,40.01,27.03,64.79l.2,53.01c.8,23.78.73,48.14.04,72-.45.33-1.03.94-1.03,1.93l.1,17.98-51.08-.12c-1.81.13-2.16-1.26-1.05-4.18.17-47.62.09-95.18-.25-142.68-1.74-7.91-4.62-15.14-8.65-21.69l.1-1.46c-2.75-.67-5.35-4.25-6.18-6.95-1.99.16-3.28-1.06-1.96-2.83,1.36-.08,3.26.02,4.29,1.38.33.43.29,1.39.34,1.77.06.48,1.89.07,2.27.38,3.59,2.91,4.38,7.87,6.57,11.89l2.92,1.75c.64.39-.64,2.61-.18,3.87l3.68,10.06.07,146.99,45.89-.34c1.35,0,1.9-4.42,1.45-5.87-1.35-4.35.54-9.5.54-14.07l.03-125.43-1.13-14.21c-.18-1.78-1.4-2.87-2.48-.33.61-4.37-.96-7.88-2.97-12.11l-3.58-7.53-3.16-8.77c-2.39-.34-2.25-2.94-2.96-3.86l-6.77-8.74c-1.57-2.03-4.84-3.11-4.85-6.77,0-2.18-2.53-1.37-3.18-1.97l-8.21-7.51c-1.4-1.28-1.68-2.51-3.57-2.99-.95-.25-2,.75-4.31.97-.91.09-.29-2.51.94-2.87-.21-1.91-2.54-2.78-3.82-3.67-.36-1.44.34-1.31,1.34-.19,1.73-1.09,6.08,1.15,5.86,3.19Z"/>
      <path class="st31" d="M736.8,420.09c3.79.42,9.09,2.48,12.28,4.55.22.14.14.74-.02,1.48l1.22.7c.9.19.92.52.1.98-.33.02-1.05.07-1.34.19-3.19,1.32-10.4-3.94-15.6-7.41l-9.52-2.14c-2.34-.52-5.76-1.65-7.97-1.85-4.57-.4-5.11-4.4-14.76-4.42l-27.9-.06-9.04.99c-1.31.14-1.84,1.47-1.42,2.62l-17.64,3.79c-3.56.76-4.1,1.73-7.24,3.29l-9.2,4.58-6.54,2.56c-1.82.51-1.72-.08-.37-1.41,2.8-4.6,9.14-7.53,14.28-9.7,3.7-1.56,7.19-2.98,11.33-2.61,29.32-9.77,61.2-8.43,89.37,3.87Z"/>
      <path class="st2" d="M621.82,428.54c.25.66.23,1.2.37,1.41,2.39,3.56-3.75,3.61-8.7,6.21l1.43,1.63c-4.63,1.94-9.1,4.45-12.2,8.77-.1,1.47-.54,6.29-3.1,3.86-1.58,3.59-4.16,6.51-7.58,9.24-2.87,1.35-2.05,5.04-2.72,6.69-1.52,2.13-3.83,3.27-4.76,6.14l-5.82,18.04c-.4,1.24-1.78,2.08-2.68,2.21,3.09-14.86,10.05-28.58,19.24-40.57,2.96-5.64,6.01-9.41,10.57-13.47,4.59-4.09,10.41-8.67,15.95-10.17Z"/>
    </g>
    <g>
      <path class="st43" d="M1143.1,571.81c2.05,4.37,4.43,9.06,8.28,12.01,1.09,2.96,2.67,4.64,4.75,5.04,2.31,3.84,4.97,5.07,9.08,6.53,17.19,11.49,45.55,12,64.44,4.07,18.93-7.96,30.61-23.61,34.08-43.6l.03-143.33c16.36-.44,32.67-.26,48.93.52.89,51.25.77,102.3-.34,153.15-1.69,11.77-7.13,24.22-12.72,34.25-4.39,7.1-9.46,13.8-15.22,20.11l-1.2-.91-3.07,4.33c.84,1.08.25,1.51-.93.75-13.98,13.38-33.12,22.26-52.39,27.06-2.22.55-12.05,2.63-13.77,2.7-14.8.63-31.68-1.26-46.07-4.31-.27.5-.5.88-.64.85-6.25-1.56-14.31-4.5-19.1-8.35-34.25-17.35-56.87-48.87-59-88.83l-.13-142.68c.39-.64,1.4-1.09,3.01-1.36,16.07.56,32.25.97,48.54,1.22l.12,143.73c1.03,4.56,2.47,8.96,4.34,13.22-.1,1.73-.44,3.01-1.02,3.83Z"/>
      <path class="st47" d="M1313.36,412.93c-.64,1.09-1.04,1-1.2-.26-15.91-.31-31.84-.39-47.79-.24-.75,47.62-.97,95.42-.65,143.42-.03,8.29-3.51,16.42-6.84,23.58-5.13-.18-.7,5.31-7.26,7.25-1.94.57-2.61,3.85-3.76,4.75l-13.53,8.06c-7.85,4.68-29.68,7.03-36.44,5.86l-14.66-2.55c-3.87-.67-9.52-.26-12.6-3.32-2.48-2.46-3.51-4.29-7.82-4.13-2.46.09-4.77-3.72-4.97-5.87-4.33,2.23-3.8-3.81-4.46-5.68l1.68.14c5.49,4.51,11.25,8.76,17.29,12.75,2.68.2,4.25,1.06,4.73,2.58l2.85,1.07c12.19,1.71,22.06,2.13,34.36.97,1.45-.14,2.85-.35,4.18-1,1.38,1.67,3.25,1.3,5.61-1.11,3.87-.23,6.93-1.42,9.18-3.56,2.9-.38,5.93-1.58,9.11-3.61,8.64-6.23,15.66-14.6,19.04-24.82-.49-2.26-.12-3.37,1.1-3.32.42-1.27.19-3.4.89-4.58-.3-2.55-.03-4.69.83-6.4-.88-45.88-.89-95.23.01-141.67l48.99-.45c.91,0,1.66.31,1.93.66.24.3.18,1.11.21,1.45Z"/>
      <path class="st7" d="M1313.36,412.93l.45,31.61-.2,114.15c-.97,27.15-15.79,50.53-33.99,68.27-.3,1.33-.58,1.55-1.36.35-2.64-.59-1.47-2.81.94-2.59.11-.29.64-.62.93-.75l3.07-4.33c6.26-.93,4.72-11.54,10.26-10.45l2.68-5.96c.69.08,1.89-.36,2.18-.63.24-.22.14-1.15-.43-1.37-.46-.18-.99.7-1.88-.35,3.6-3.41,7.03-8.41,8.81-13.39l5.21-14.62c2-5.61,2.59-13.04,2.66-19.21l.3-27.79c.06-5.68-2.09-11.86-.21-17.43,1.13-3.34-.36-5.65-.37-8.81l-.23-86.71h-47.86s-.59,142.93-.59,142.93l-.53-143.91,45.03-.06c2.13,0,3.49.15,5.14,1.04Z"/>
      <path class="st15" d="M1279.2,624.72l-.94,2.59c.31,3.82-6.34,7.7-10.09,8.91-.95-.32-1.61.35-2.11.64-.83,3.15-2.56,4.14-5.18,2.98-15.1,8.68-32.27,13.54-49.68,14.9l-4.05,1.55-26.86-1.19c-2.75-.55-5.34-1.57-7.79-3.06-.3-.06-.94.1-1.24.12-2.47-.07-3.9-.73-4.28-1.99l7.15.82,12.19,1.6c8.96,1.17,17.84-1.13,26.7,1.8,4.64-3.81,10.25-1.92,15.07-3.8l10.01-3.9c3.9-1.52,9.18-2.19,12.38-4.43,3.42-2.4,5.64-3.35,9.62-4.83,6.75-2.52,15.42-12.88,15.99-13.08.93-.34,2.1-.29,3.11.39Z"/>
      <path class="st42" d="M1151.37,583.82l-1.77,1.13c-.74.48-1.54-.64-1.02-1.02,2.18-1.61-3.27-2.35-5.48-12.12l8.28,12.01Z"/>
      <path class="st15" d="M1283.19,619.64c-.01,2.18-1.32,3.6-3.07,4.33.37-1.77,1.22-4.06,3.07-4.33Z"/>
    </g>
    <g>
      <path class="st43" d="M967.23,412.84c30.53-1.23,61.75,2.77,92.41,7.28-3.44,9.07-5.16,13.61-5.16,13.61l-1.56.3c-2.18,7.16-5.11,13.93-8.77,20.34-.41,2.81-1.29,5.17-2.64,7.07-14.4-1.98-28.75-4.1-43.06-6.38l-.24-1.05c-.17,1.59-1.56,1.56-2.02.03l-15.97-.02c-.38.76-.72.74-1.01-.05-1.76-.43-3.1-.08-4.02,1.03-.84.89-3.83,1.03-4.83.12-.97-.28-2.09-.08-3.35.61-1.17.78-2.74,1.33-4.73,1.65-19.78,3.79-28.64,26-8.19,36.3l.1,1.27c17.69,6.53,35.94,10.73,54.74,12.62,5.76,2.29,11.68,3.95,17.75,4.98,9.89,3.58,19.47,7.94,28.72,13.07,14.64,14.36,20.54,26.09,20.15,46.93-.2,10.43-2.16,21.95-6.03,31.65-.05.13-.52.1-1.1.01-3.15,8.75-7.83,16.72-14.03,23.9-2.63,3.26-5.67,6.84-9.33,8.84.32.6.54,1.11.38,1.31-1.61,1.95-9.7,4.86-12.61,5.36l-11.35,3.71-16.56,2.58-61.22-.55c-6.78-.49-13.58-1.44-20.42-2.86-3.78.23-28.55-2.07-29.26-3.74-.47-1.11,8.71-18.98,10.13-21.64.13-.24.56-.32,1.07-.36,2.62-7.88,6.3-14.96,11.03-21.24,8.46.4,16.96.92,25.52,1.58,19.86,4,39.58,4.12,59.16.38,11.75-4.04,16.93-6.51,18.88-19.24.7-4.57.72-10.43-1.33-14.65-3.64-7.49-9.87-9.27-17.43-11.27-2.03-.54-4.1-.92-6.19-1.18-.2.03-.58,0-.76-.04-1.82-1.18-3.81-1.88-5.92-2.38-14.61-3.47-29.51-6.46-44.44-9.16l-1.47-1.62c-4.61-.71-8.35-2.47-11.24-5.29-10.6-2.48-21.06-11.78-28.06-20.03-9.74-11.48-11.09-30.09-9.92-44.64.55-13.87,7.05-26.89,17.39-36.58,15.23-14.26,36.44-22.09,56.78-22.55Z"/>
      <path class="st44" d="M905.23,620.76c-.8-.2-.89-1.22-.29-3.06-1.83-.91-1.35-2.37.46-2.78-.02-2.76.93-4.48,2.84-5.17.22-2.81.96-4.03,2.24-3.67l3.94-7.95,2.81-1.27c5.35-.06,10.62.64,15.8,2.1,3.26.04,6.26.35,9,.93l1.28.19c11.86.06,23.75.85,35.67,2.39,8.09-1.28,16.14-2.46,24.16-3.54.01-1.31.92-1.76,2.73-1.35l.28-1.59c15.72-5.85,15.56-30.13-.19-35.1.21-1.07-.35-1.85-1.67-2.33l-9.43-3.43c4.86-.66,9.43.69,14.34,2.36.94.32,3.2-.12,4.09.49.72.49.81,1.95,1.32,3.22,5.31,3.22,7.05,8.79,6.61,14.75l-.8,10.75c-.04.5,1.85,1.57,1.53,1.82l-1.78,1.33-4.49,7.82c-3.94-.91-5.96,2.26-8.47,3.14-8.98,3.16-17.53,4.7-26.84,4.39l-21.55-.74-17.64-2.21c-3.99-.5-9.1-1.5-12.15-.52-2.56,1.68-4.77-1.08-6.98-1.4-6.48-.95-9.83,4.39-10.68,9.86l-3.69,7.03c-.9,1.71-.53,3.11-2.44,3.56Z"/>
      <path class="st50" d="M980.22,454l15.97.02c.49-.16,1.55-.24,2.02-.03,2.39,1.24,2.62,1.47-.07,2.3l-24.86-.15-9.81,2.05c-7.24,1.51-13.73,5.24-17.62,11.24-4.29,6.61-3.08,14.16,2.65,19.28,4.9,4.38,10.76,6.64,16.59,8.71l2.33-.58c11.17,3.3,22.49,5.99,33.96,8.06l24.57,6.28c3.62-.5,5.71.19,6.28,2.07l4.85,1.93c5.92.75,13.48,4.44,17.89,8.46.41.37.48,1.12.44,1.98-3.73-1.28-8.67-1.85-12.13-4.7s-7.45-3.5-11.04-5.05c-4.22-1.82-7.32-3.45-12.08-2.61-2.07.37-5.06-2.41-6.71-3.43-3.48-2.15-7.28-1.61-11.03-2.17l-24.8-3.74c-4.27-.64-7.3-1.63-11.28-4.09l-13.1-3.09c-1.52-.36-2.08-1.61-.2-2.67-8.57-4.53-12.76-10.12-10.77-20.24l1.59-8.08,7.75-5.42,6.61-2.28c3.1-1.07,5.85-3.63,8.78-2.33,1.25-.84,2.36-1.04,3.35-.61,1.28-.53,3.41-.04,4.83-.12.17-1.7,2.41-1.37,4.02-1.03.23-.1.77-.03,1.01.05Z"/>
      <path class="st40" d="M972.21,411.94c4.63-.93,10.37-.87,15-.02l22.02.93,52.2,6.07-8.52,19.87.44,1.43c-1.88,5.49-4.35,10.59-7.43,15.3.34,3.97-2.13,11.63-6.57,8.2-6-.91-12.07-2.17-18.22-3.79l-22.99-3.65.07-2.3c4.41,2.04,9.83.36,14.93,1.28l6.85,1.23,11.19,2.82c3.67.93,7.41,1.54,11.07.03-1.48-4.26.55-6.78,3.02-9.31,2.99-3.07,2.91-8.25,3.99-12.1.74-2.63,2.51-4.47,2.26-7.42,1.96.97,1.78,1.87,2.53,2.77.21-5.26,1.67-8.75,4.19-12.7-4.18-1.42-7.77-.29-11.4-1.02l-10.72-2.15-17.01-1.57-5.91-.08-10.14-.16,4.47-1.38-40.31-1.39c-.89-.19-.87-.5-.02-.94l5,.04Z"/>
      <path class="st17" d="M905.23,620.76c-2.4,5.41-3.55,11.62-7.93,16.27-1.3,1.38-2.18,2.83-1.77,4.25.54,1.86,2.6,1.88,4.38,2.14l14.63,2.15c3.42.5,8.09-1.51,11.42.46,3.63,2.15,6.48,1.74,10.29,1.55,3.2-.16,6.28.99,9.88-1.09-.13,1.75-1.33,1.7-1.97,2.21l10.93-.44,13.12.75,32.03-.25c2.57-.02,4.7,1.1,7.84.09,4.37-1.41,9.12-2.31,13.41-1.52-10.52,3.44-21.7,3.87-33.29,3.67l-31.8-.53c-7.38.48-14.82.43-22.31-.13-5.29-1.64-10.72-2.07-16.28-1.29-.39-1.8-1.94-2.09-4.65-.87-4.71-1.23-9.53-2.15-14.47-2.78-3.96,1.15-6.63.64-8.02-1.53,3.77-8.57,7.96-17.12,12.12-25.62.34-.7,1.28-.75,2.15-.55.18.88.61,2.34.29,3.06Z"/>
      <path class="st29" d="M994.11,555.09c-5.34-.95-10.42-3.24-15.9-3.15l-10-2.29c-1.52-.25-3.36-.18-4.74-.86-1.71.47-3.11.15-4.22-.95-.22.03-.57,0-.77-.05-2.26.25-3.68-.15-4.26-1.18l-4.97-.95c-5.22.33-10.69-1.89-14.8-5.05-9.42-3.21-17.84-8.95-25.2-15.66-1.13-1.38-2.32-1.94-3.57-1.68l-3.6-5.43-1.62-2.95-1.38.23-3.21-7.02c1.14-3.38-4.54-11.64-3.74-18.99-.75-6.16-.44-11.87.94-17.13l.58,17.83,4.12,16.56,3.54,5.54c3.18,4.98,7.57,9.24,11.86,13.06,5.88,4.65,11.11,9.2,18.85,10.06,3.4,5.65,9.7,5.31,15.24,6.32-1.13.48-2.93-.38-3.37,2.02,9.69-.83,17.61,2.38,26.38,4.43,3.14.73,5.55.83,8.59,2.44,3.71,1.96,12.14-.03,15.26,4.87Z"/>
      <path class="st39" d="M1067.92,538.19c4.63,6.71,7.35,14.64,8.15,22.76.7,1.96.99,4.34.87,7.14l.05,7.67c.23,7.58.27,15.47-4.1,22.08-.29,4.21-2.19,8.98-4.97,11.94-.19.47-.54,1.5-.95,1.85.16,1.85.14,3.43-1.98,3.28-.13.5-.61,1.32-.91,1.72-.67,3.33-4.55,9.61-7.57,10.4-.66-.3-1.65.52-2.1,1.08-.05-4.93,5.23-6.19,5.04-12.32l1.31,3.48c.77-3.86,2.59-6.11,4.55-9.45l2.54-9.83c.38.7-.17,2.43,1.42,3.25,5.44-15.16,7.33-47.77.77-57.05l-9.11-12.9c-2.03-2.87-5.48-4.34-5.5-7.67,5.41,1.03,10.01,7.48,12.51,12.58Z"/>
      <path class="st30" d="M967.21,411.9l.02.94c-3.45-.12-5.74.94-9.4,1.69l-14.72,3-10.4,4.65c-5.5,2.46-11.23,4.23-15.76,8.71-3.43,3.39-7.3,6.54-9.94,10.87-.87,1.42-5.32,2.79-5.38,4.44.36,4.39-2.9,5.96-3.81,9.16l-4.75,16.61c-1.58,5.52-.32,11.47-.94,17.13-1.66-13.91-.39-29.28,7.31-42,9.85-16.28,26.48-26.47,44.47-31.4,8.08-2.21,15.53-3.86,23.3-3.79Z"/>
      <path class="st30" d="M987.21,411.93l-15,.02c.11-.68.86-1.06,1.92-1.06h11.15c1.07,0,1.82.39,1.93,1.04Z"/>
      <path class="st40" d="M996.19,454.03c-3.92,1.51-12.17,1.54-15.97-.02,5.32-1.76,10.56-1.15,15.97.02Z"/>
      <path class="st40" d="M979.2,453.95c-1.2.68-2.59.95-4.02,1.03-.11-.35-.22-.8-.96-1.63,1.4-.81,3.9-.84,4.97.59Z"/>
      <path class="st40" d="M970.36,455.11c-1.09.45-1.86,1.28-3.35.61.41-.73.99-1.25,1.81-1.67.66-.34,1.47-.12,1.54,1.06Z"/>
    </g>
    <polygon class="st43" points="874.16 655.92 814.64 656.07 814.6 411.1 874.16 410.94 874.16 655.92"/>
    <g>
      <path class="st6" d="M875.61,365.8c.68,1.16,1.07,2.12-.43,2.12.99,1.11.25,2.9-1.32,2.83,1.25,1.79-2.11,6.51-3.76,8.61-7.8,9.97-24.06,13.3-36.12,11.03-13.28-2.51-27.02-18.85-24.68-32.72.27-16.06,10.8-31.08,27.96-33.58,3.53-.51,8.26-.62,11.83-.06,20.13,3.14,31.8,22.92,26.52,41.78Z"/>
      <path class="st43" d="M854.18,385.98c-3.45,2.98-17.92,3.11-24.36-1.58-3.75-2.73-10.04-4.21-8.25-8.76-2.17-.67-6.37-3.77-6.53-6-.2-2.77-1.22-3.79-2.16-6.14-2.29-5.69-.6-21.18,2.08-14.68-.83-3.14-.48-6.48,1.87-9.34,1.16-.05,2,.03,2.49-.35.93-.71,1.14-2.63,1.49-3.55,1.61-4.18,6.71-5.03,9.54-7.37,4.71-3.91,15.24-4.22,21.97-.65,2.56,1.36,5.51,1.57,8.27,2.17,3.81.84,4.36,7.03,6.49,8.93,2.31,2.06,4.14,2.26,4.97,5.78l3.54,6.47c-2.12,3.61-.24,7.35-.83,10.85-1.46,8.69-8.47,11.36-9.21,17.42-1.27.85-2.86,1.75-3.58,3.23-3.77-1.28-5.4,1.49-7.79,3.56Z"/>
    </g>
    <g>
      <path class="st57" d="M489.24,588.75l-3.42,4.77c-.5.26-1.73-.41-2.01-.81l-.03-.7,5.47-3.26Z"/>
      <g>
        <path class="st43" d="M382.24,412.94l-.15,132.83-.29,7.23,2.77,16.37c1.46,8.61,15.18,23.86,21.88,25.49,2.18.53,4.76,2.34,4.21,4.97,4.77-.59,8.77,1.77,13.35,3.36,6.46,2.24,13.67,1.78,20.16,1.75,1.65.75,3.4.75,5.03-.02l3.03.1,14.47-1.71c2.46-.29,4.49-2.88,7.52-2.06.21-1.32.46-1.89.91-2s1.58.33,2.07.52c.7-1.53,1.98-2.61,3.12-3.67l12.08-1.45c.55-.06.38-1.38-.31-1.21l-2.55.64c-.67-2.72,1.29-6.43,4.88-6.78.96-1.93,1.45-3.48,2.87-4.96,2.57.54,5.16-.86,5.15-3.36v-4.31c-.02-1.83,1.19-2.12,1.52-2.71,1.31-1.02,1.66-2.39,1.06-4.12l1.03-3.01c.85-.93,1.15-1.75,1.24-2.97-.43-1.63-.67-4.93,1.71-6.09l-.69-142.05c1.27-.49,2.05-.83,2.74-.83,11.86-.78,24.26-.86,36.14.09,1.86,0,4.7-1.07,6.7.36,1.09.78,1.28,4.02,1.28,5.63l-.21,62.84c-.01,3.84,0,6.48.03,10.27l.45,53.84c.03,3.1.63,5.68,0,8.76,1.03,3.23,1.84,8.11-1.77,9.99.74,6.4-.56,13.21-4.77,18.97-.36,4.06-3.17,6.85-4.43,10.22l-2.58,6.91-11.51,14.48c-1.19,1.5-3.31,2.63-3.08,4.73-.66.54-.96,2.54-2.18,2.71-3.33.45-4.63,3.78-6.79,5.11-7.25,4.43-6.68,8.55-15.49,8.29l-.28,1.99c-.06.44-1.52,1.38-2.06,1.25-3.29-.84-4.91,3.33-6.71,3.84l-14.35,4.12c-.5.14-1.31,1.88-2.07,1.21-.3-.26-.57-1.06-1.36-.88-1.89-.04-2.05,1.75.24,1.76-1.34,1.95-3.58,1.26-6.09,1.59l-12.3,1.63c-6.85.91-13.84-.63-20.74,1.4l-19.78-3.25c-1.54-.68-2.15-1.9-2.6-3.59-2.24,2.58-3.76.51-5.64.19-4.45-.74-9.05-1.87-11.96-4.9-.35-.36-2.33.18-2.38-.32-.34-3.63-2.71-3.06-8.65-4.13l-4.02-2.59c-2.81-.47-3.86-1.51-5.08-3.18-.49-4.07-4-7.7-8.83-6.22l2.21-2.45c-2,.48-5.56-.3-5.28-1.94.52-3.03-2.76-5.3-5.27-6.21-2.11-.76-1.83-3.47-2.71-4.22-2.07-1.78-3.07-3.07-1.93-6.02l-5.54-2.69-1.88-5.87c-4.48-2.73-7.57-10.02-7.32-14.9-2.86-4.76-4.24-8.17-4.82-13.8-.64-6.15-2.43-12.86-1.29-18.88l-.16-1.1-.51-1.22.02-134.04c16.18-.37,32.35-.27,48.52.29Z"/>
        <g>
          <path class="st33" d="M531.54,618.43c-1.63,1.44-3.03,1.96-4.2,1.54l-1.77-1.74c4.86-6.23,9.76-12.47,14.7-18.74,4.22-9.19,8.02-18.53,11.41-28.02-.42-4.06.32-7.26,2.2-9.62-.6-48.93-1.02-97.96-1.28-147.09-2.9.38-4.69-.22-5.37-1.81-11.83-.96-24.27-.84-36.14-.09.32,2.71-.95,2.74-2.74.83l.69,142.05c.57,2.12.47,4.99-1.71,6.09.23,1.11-.33,2.36-1.24,2.97,2.71,1.03,1.76,3.22-1.03,3.01.81,1.28.53,3.71-1.06,4.12.88,1.85,1.26,6.51-1.52,7.02-1.39,1.88-3.95,2.88-6.26,2.92,5.98-9.38,10.64-19.5,10.67-31.58l.35-131.25c0-2.95-1.3-5.3.06-8.34h50.31s.13,45.21.13,45.21l.7,96.92c-1.21,24.99-10.42,47.78-26.88,65.57Z"/>
          <path class="st58" d="M384.9,562.07c2.46,1.81,3.14,4.59,2.93,7.76,3.45,6.84,5.18,10.26,5.18,10.26,1.21-.1,2.2.57,2.97,2.02,10.49,11.86,27.2,18.61,42.89,21.2,4.54-.02,8.98.19,13.33.63.88.28.88.64.03,1.08-.17,2.88-2.45,2.63-3.03-.1-1.55.81-3.46.8-5.03.02l-1.85,2.02c-8.79,1.08-18.11-1.16-26.09-4.54-4.23-.07-7-1.62-8.3-4.66-19.33-8.3-26.36-24.68-28.13-44.61l.42-138.99,2-1.22c-15.88-.5-31.82-.64-47.8-.43l-.71.78-.02,133.38.51,1.24c.91.19.95.56.16,1.1-.68,3.71-1.09,7.38-1.24,10.98-.33-.07-.82-.32-.93-1.24v-147.82s51.01,0,51.01,0v138.86c-.68,4.8,1,8.48,1.68,12.28Z"/>
          <path class="st11" d="M377.03,632.21c-2.49-1.11-5.12-2.45-7.88-4l-13.76-13.4c-2.01-.47-3.58-2.15-2.94-4.1l-1.16-.51-1.28.21c-2.92-3.54-4.84-7.75-5.76-12.63-6.68-11.33-11.16-24.64-11.13-37.78l.02-9.13c0-1.07.4-1.83,1.21-1.85,1.64,1.91,2.26,4.68,1.87,8.31.25,8.66,2.29,16.6,6.11,23.83.12,5.56,2.39,10.9,6.94,14.23.94,4.06,3.41,7.07,7.42,9.04.03,3.01,1.21,6,3.56,8.97,3.46,1.32,7,3.86,6.84,7.97,4.29.84,14.21,6.11,9.91,10.86Z"/>
          <path class="st10" d="M525.02,625.48c-6.17,7.37-15.42,13.2-23.98,17.73-3.28.96-6.29,2.46-9.02,4.51l-16.72,4.6c-1.94-.44-3.8-.06-6.26.43-35.59,7.02-72.4-1.53-99.88-24.54,3.07.18,6.1,1.57,7.88,4l2.15-.48c4.91,3.04,10.24,5.24,15.99,6.61,4.61,4.34,10.39,7.05,17.34,8.13,1.84-1.26,3.7-.45,5.59,2.44l18.93,3.11c12.03-.91,24.04-1.98,36.03-3.2-.13-2.82,2.18-3.75,4.69-2.71,5.02-1.95,10.17-3.56,15.46-4.83,2.04-2.69,4.54-4.04,7.49-4.05.59-2.41,2.71-3.58,6.35-3.51,6.14-4.56,12.09-9.11,17.87-13.63l2.42-.1c1.01-.83,2.73-1.31,4.2-1.54l-6.53,7.05Z"/>
          <path class="st1" d="M480.34,596.1c2.1,4.27-8.49,7.98-12.52,9.02-3.24.83-10.68,1.74-13.97,1.72l-1.62-1.82-.03-1.08.99-1.02,2.07.16c8.78-.72,17.49-3.67,25.05-8.25,1.93.03,1.94.78.04,1.27Z"/>
          <path class="st46" d="M502.47,578.98c4.09,1.96-.87,5.64-4.37,5.54-1.55,2.61-3.67,4.95-6.37,7.01,4.12,1.79,3.1,3.32-.17,5.24-.98.58-11.11,2.06-11.22-.67l-.04-1.27,3.5-2.12c2.04-.8,3.73-2.27,5.44-3.96,1.87-2.61,4.29-5.09,6.96-6.85,1.9-1.25,3.76-2.73,6.26-2.92Z"/>
          <path class="st46" d="M509.03,555.76l-.69-142.05.69,142.05Z"/>
          <path class="st46" d="M547.23,412.96l-36.14-.09c.31-.55,1-.98,2.06-.98h32.11c1.1,0,1.83.36,1.98,1.07Z"/>
          <path class="st46" d="M503.99,571.96c.14-1.45.58-2.71,1.06-4.12,1.38.39,1.28,1.62,1.26,2.58-.02,1.37-.88,1.89-2.32,1.53Z"/>
          <path class="st46" d="M506.08,564.83c.27-.78-.15-2.34,1.24-2.97.35.34.89.99.74,1.46-.3.96-1.09,1.44-1.99,1.52Z"/>
          <path class="st11" d="M382.24,412.94c-2.16,1.15-4.46.13-7.04.12l-41-.11v134.96c-.35.07-1-.28-1-1.16l.06-134.69,48.66-.11c.26,0,.33.78.33.98Z"/>
          <path class="st1" d="M449.21,604.91c-1.01,1.56-3.99,1.56-5.03.02l5.03-.02Z"/>
          <path class="st46" d="M509.6,562.01c-.68-1.51-.45-3.1-.36-4.56.26-.3.5-.52.52-.53.77,1.67.78,4.21-.16,5.09Z"/>
        </g>
      </g>
    </g>
    <g>
      <path class="st43" d="M1585.34,533.86l-1.64-2.51,1.53-2.52-.28-106.74.08-11.23.17-97.76c-7.5-.43-11.67,6.46-18.67,8.83-3.62-.09-5.17,2.78-8.14,4.25l-15.34,7.56c-1.22.6-2.12,4.31-3.39,4.46-2.2-.07-3.86-.61-4.33,1.1-2.83,1.19-2.48,3.66-1.35,5.79l-.79,13.9v53.94s1.26,5.19,1.26,5.19c-1.69,4.11-1,7.69-2.3,9.34-1.17,1.47-5.6-1.29-11.21-4.47l-3.43-3.85c-1.24-1.39-3.95-1.71-5.94.32-.44-.67-.82-1.47-1.41-1.82-.7-.41-1.62-.25-2.6.09.63-1.94.02-3.28-1.37-3.78l-10.39-3.69-8.12-2.23c-5.25-1.44-10.21-3.67-15.99-3.72l-34.5-.27c-4.43-.03-8.81,1.8-12.85,3l-17.76,5.27c-2.74.81-5.89,1-6.57,4.74,1.88-.53,3.7-.84,4.49,1.23-6.19-1.96-10.21-.81-14.59,2.25-3.22,2.25-6.88,3.43-9.66,6.57-1.1,1.24-3.87,1.31-5.02,1.94.27,2.37-3.1,2.53-3.72,6-.09.49-2.11-.24-2.52.08-4.62,3.65-9.74,8.14-12.68,13.36l-5.64,6.85c-2.07,2.52-4.26,4.45-6.3,5.71-.7,3.38-1.91,6.6-3.96,10.11l-3.29,5.62-6.22,16.94c-1.17-2.58-2.22-1.19-2.35.53.32,5.43-1.52,9.95-3.03,14.83l-1.73,15.59c-.75,6.74-1.43,14.09.23,20.49.66,2.53-.2,4.13.23,6.78l3.07,18.9c3.05.22,2.61,3.59,3.24,5.43l3.65,10.57c1.78,1.63,3.91,2.56,4.49,5.81.96,5.41,4.85,10.26,8.05,14.68,2.67,3.68,4.24,8.17,8.37,10.48,1.05,3.11,3.51,5.98,7.06,6.5-1.15.89-1.67,1.54-1.84,2.02-.27.74.74,1.65,1.44,1.4.51-.18,1.15-.63,2.09-1.91-.17,2.32,1.96,3.66,2.89,5.33,1.56,2.82,3.14,3.09,5.62,4.7l15.66,10.17c1.9,1.23,3.32,3.06,4.29,4.62,3.64.81,6.97.82,9.93,3.37l9.99,2.8,10.4,4.73,8.22,1.27,9.22,1.06,6.2.42,23.32.43c-.09-.85.04-1.88.38-1.75l2.44.92c4.41-.63,8.96-1.32,13.11-2.55l10.2-3.01c1.01-2.16,1.75-2.29,4.3-2.75l6.48-1.17c3.21-1.95,5.93-3.68,9.56-3.49.66-1.13,3.02-.38,2.31-1.56-.33-.55-1.16-1.15-2.99-.83l10.42-4.84,13.01-9.95c-.09-.86-.11-1.55.13-1.95.4-.65,2.14-.77,2.77-1.34l7.17-6.51c1.81-1.65,3.43-1.24,4.25-4.47l7.05-7.57c.88-4.46,5.41-6.34,7.3-9.58.38-1.55.2-4.43,2.38-5.96,1.07-.75.64-4.36,3.44-3.89-.86-1.59-1.34-2.47-1.73-4.25l2.33,1.29,6.23-16.81c.84-2.27,2.86-3.75,2.48-6.89l2.19-12.99.52-19.01ZM1530.72,537.56c-.07.21-.45.32-.91.41.43.33.76.65.73.94-.31,3.84-1.25,12.31-2.09,15.8-2.57,4.57-4.66,9.48-6.26,14.71-5.05,6.98-10.05,13.88-14.99,20.68,1.1,1.77-1.21,3.39-2.69,1.93-2.5,1.36-4.56,3.08-6.18,5.15.27.6.45,1.11.27,1.3-1.78,1.95-8.89,5.75-11.44,5.54-.46,1.27-1.31,2.06-2.55,2.5-14.06,4.99-27.6,6.94-42.48,4.91-7.71-1.05-16.06-2.47-21.73-7.89-4.51-.61-10.19-4.68-13.09-8-.21.17-.43.11-.58.12-2.99-1.74-5.56-4.19-7.72-7.33-20.8-18.22-28.17-52.24-19.43-79.17,1.41-4.35,4.25-10.93,7.97-13.19,3.91-7.86,10.01-18,18.43-21.08,3.61-1.8,7.22-3.95,10.81-6.44,0,0,6.14-2.97,18.41-8.92,1.76-.76,3.31-1.75,4.66-2.99,9.92-.71,19.74-.82,29.65.09l4.74,2.85c11.05,2.85,21.03,8.58,29.96,15.68,2.86-.12,3.93.73,1.66,2.84l2.56,3.89c11.37,8.02,26.34,43.3,22.29,55.68Z"/>
      <g>
        <path class="st16" d="M1586.94,308.03c1.2,34.95,1.03,73.29.23,108.9l-.18,126.98c-.04,30.73-14.01,58.29-34.13,80.57l-11.99,11.15c.03,1.24-.14,2.58-1.09,3.29-6.73,4.99-14.3,10.41-22.22,12.3-.76.35-1.25.27-1.47-.25-.99-1.45-1.24-2.97-.75-4.56,7.88-3.27,15.05-7.79,21.52-13.58l.54-2c7.9-5.59,14.94-12.2,21.11-19.84,1.52-3.55,3.93-6.7,7.23-9.46.73-3.6,2.26-6.94,4.6-10.03-.82-2.6-.5-4.17,2.43-4.57.65-.84,7.44-18.11,7.88-19.73.93-3.41,1.8-10.78,2.19-14.54.64-6.15,1.01-15.46-.89-21.06l1.28-3.46c-.2-71.02-.25-142.01-.16-212.95-12.78,6.88-25.78,13.61-38.99,20.21l-2.92,4.18c-4.06.4-7.51.79-5.22,5.68-.83,22.45-1.08,44.93-.76,67.44,2.53,14.03-1.33,22.47-15.41,11.87-2.41-4.18-5.18-5.37-8.31-3.57-4.71-1.76-6.46-4.11-5.27-7.05-1.96-1.81-1.35-2.47,1.14-1.57l18.92,9.94c2.2.45,3.71-.14,4.52-1.77.34-26.88.05-53.71-.86-80.48,1.28-3.62,4.11-6.11,8.48-7.45.55-1.24.93-1.63,1.94-.48.93-.57,2.7-1.47,3.65-1.95-.21-.45-.37-.89-.34-1.32.06-.7,7.8-3.27,9.48-3.65-.14-.67-.21-1.21-.03-1.31,4.09-2.27,7.82-4.3,12.2-6.1.29-.12.66-.04,1.06.09l20.58-9.87Z"/>
        <path class="st6" d="M1516.09,650.96l1.47.25c-.3.75-.65,1.46-1.17,2-2.17,2.25-10.8,5.38-14.38,6.6-8.09,2.77-18.37,5.11-26.87,5.89-10.45,2.74-23.67,2.7-34.61,1.66-6.68-.64-27.43-3.7-31.9-6.7-.68-.46-1.17-1.19-1.6-2.01-.22.48-.63.43-.79.5-2.01.34-12.06-4.06-12.22-4.7-.12-.46-.07-.96.03-1.48-.26.02-.6.01-.74.1-3.85-1-6.57-2.75-8.17-5.26-17.83-11.18-32.72-25.97-43.76-44.01-2.47-.96-4.1-3.59-4.9-7.87,0-.32-.04-.83-.17-1.11-3.78-.52-5.7-8.15-5.77-12.09l-3.4-10.72.2-1.17c1.23-2.74,2.45-1.54,4.02.56l4.52,14.39c3.42,3.39,6,7.9,7.73,13.53,5.67,9.82,12.28,17.04,19.84,24.93,2.38,2.49,4.58,5,6.65,7.86,8.61,4.77,16.51,10.36,23.71,16.79,10.09,2.73,20.12,6.4,29.76,10.76,14.56,2.31,29.23,3.33,44.02,3.04,1.72-1.33,3.16-2.04,4.99-.74,7.79-1.18,18.07-2.8,24.15-7.54,6.16-1.36,12.18-3.18,18.04-5.46l1.3,1.99Z"/>
        <path class="st45" d="M1470.21,401.87c.54-1.32,1.21-1.03.99.47,12.39,1.44,25.08,4.22,36.14,10.03l-1.14,1.57-1.7,1.52c-20.24-5.99-30.35-8.99-30.35-8.99-6.86-1.12-32.15-1.29-39.04-.3-5.98.86-25.46,6.44-30.99,8.91,4.09,4.89-.81,5.13-5.17,4.22-4.91.95-9.59,3.12-14.04,6.53-3.84,4.18-7.06,5.25-9.66,3.21-1.6.77-1.68.39-.24-1.15-.22-1.52.45-2.32,1.57-3.1,8.36-5.84,17.07-11.05,26.73-14.07.16.06.37.07.75.17-.29-.91-.12-1.52.66-1.8,6.7-2.46,13.59-4.12,20.72-4.71l13.89-2.2,30.88-.31Z"/>
        <path class="st53" d="M1327.35,570.85c-.06.26-.28.91-.2,1.17-11.6-37.71-5.41-78.73,17.25-110.97l1.54,2.19c-4.88,10.05-9.25,20.34-13.11,30.85-2.03.79-2.99,3.15-2.86,7.06-6.84,22.1-5.19,45.64-.88,67.98l-1.75,1.72Z"/>
        <path class="st45" d="M1375.25,429.05c3.68,1.34-3.1,8.58-5.51,7.87-6.55,5.93-12.39,12.5-17.52,19.71-2.62,4.04-5.23,5.52-7.82,4.42,6.9-11.37,15.02-22.25,25.98-29.92-.4-1.83,3.23-4.54,4.63-3.24l.24,1.15Z"/>
        <path class="st6" d="M1487.7,605.39c-1.89.48-2.17-.26-.54-1.37l11.17-6.85c.85-2.14,2.91-3.85,6.18-5.15l2.69-1.93c5.08-6.96,10.14-14.02,15.2-21.2,1.54-4.95,3.53-9.63,5.96-14.03.12-5.96,1.17-11.53,3.14-16.72-1.01-20.1-7.66-42.01-22.98-56.12l-2.65-4.02c.06-.93-.92-2.26-1.66-2.84,1.37-.08,2.29-.23,3.86-1.07,1.84,5.96,7.02,8.9,10.49,13.31,1.53,1.95,1.65,4.76,4.82,5.57,1.52,1.64,2.72,5.72,3.82,7.88-.3,3.62.6,6.38,3.57,7.7-1.17,3.19.05,5.69,1.73,7.9l1.04,14.1-.16,14.13c-.04,3.17-2.01,5.72-.1,9.42l-2.09-2.31c-.31,3.16.88,7.06-.77,9.41-4.66,6.66-6.78,16.04-13.52,22.57l-5.38,5.21c-2.16,3.39-3.93,4.18-6.9,6.49-5.14,4-11.2,8.75-16.94,9.93Z"/>
        <path class="st59" d="M1388.33,491.76c.9.66.64,2.07-.78,4.22-15.08,25.49-13.84,57.38,3.6,82l15.58,17.68c-6.04.76-5.84-8.04-12.07-8.07.29-1.04.31-2.16-.03-2.7-.41-.65-1.66-1.03-2.95-.46-.06-3.76-4.48-5.78-5.87-9.15-1.85-4.49-2.57-8.89-6.18-12.88-.68-.75-.77-3.08-1.86-3.51,1.49-5.45-2.22-11.07-2.28-15.95l-.25-18.94,3.12-12.19-.99-8.1c1.17,1.13.96,2.53.93,4.44,2.8-1.11,1.41-4.03,2.48-5.81l5.02-8.31c.27-.45-.56-2.18.46-2.55.52-.18,1.52.16,2.05.29Z"/>
        <path class="st54" d="M1420.41,603.54c20.79,10.3,45.74,10.63,66.76.48l.54,1.37c-1.61,2.21-4.33,3.28-7.67,4.1-20.22,4.93-40.77,4.96-59.68-2.34,2.16.35,2.78-.58,2.61-1.63l-4.86-1.24c-.33-1.21.44-1.45,2.31-.73Z"/>
        <path class="st10" d="M1474.26,459.47c-12.87-3.32-26.31-3.27-39.06.06-3.53,2.43-7.1,3.77-11.32,4.97-5.78,3.79-11.69,6.98-17.71,9.57-.3.58-.48.56-.54-.08l1.67-5.07,5.3-1.17c1.86-.41,2.83-3.18,3.31-5.95,4.18,2.42,5.78.34,9.01-1.38,1.98-1.06,6.5.52,6.65-3.54,1.41,2.57,2.64,2.04,4.35,1.4,1.51-.56,3.45-.81,2.65-3.83,5.67,1.64,11.49.03,17.64.16,4.6.1,9.1,1.38,13.9.24l4.14,4.63Z"/>
        <path class="st35" d="M1420.41,603.54c-.77.33-1.7.48-2.31.73-3-.77-4.2-2.46-6.92-4.52-1.48-1.13-4.81-1.1-3.86-4.21l13.09,8Z"/>
        <path class="st55" d="M1406.18,474.07c.82.38.73.65-.19.83-8.74,5.44-12.73,13.65-18.43,21.08l.78-4.22,2.84-4.01c.34-.48.43-2.54.97-2.94.49-.36,1.21-.36,2.36-.57,2.24-2.95,3.72-7.15,6.96-8.51l4.16-1.74c.14-.06.36-.12.54.08Z"/>
      </g>
    </g>
  </g>
  <g>
    <path class="st28" d="M1116.28,767.87c-.71-12.36-.93-24.85-.68-37.47l8.51.51c1.15.07,1.54,2.47,1.9,3.34,8.03-5.88,18.79-5.82,25.16,2.04,4.57-5.06,10.42-6.62,16.84-6.06,7.39.64,13.36,6.05,13.37,13.68l.03,25.76-8.94-.21-.52-24.34c-.11-5.2-5.55-7.37-9.78-6.68s-8.02,3.59-8.08,8.53l-.29,22.44c-3.09.65-6.18.68-9.14.01l-.79-25.17c-.15-4.87-5.82-6.45-9.67-5.86-4.26.65-7.93,3.8-8.01,8.68l-.39,22.26-6.63.53c-1.56.12-2.88-.7-2.88-1.99Z"/>
    <path class="st49" d="M472.94,755.17c.97,2.65,2.66,3.75,4.94,5.08,1.94.25,10.71.88,11.83.05-.35-1.88,2.02-2.46,3.74-2.24,2.37-2.5,3.34-5.72,3.38-9.72l.33-29.33c3.17-.55,5.9-.51,9.26.04l-.04,26.91c0,4.83-.36,9.79-2.35,13.64-.18,4.84-2.35,6.45-6.17,8.72-5.56,3.28-14.44,2.63-21.02,2.12-.19-.01-.34-.51-.48-1.14-3.14-1.2-5.81-3.34-8.13-5.73-1.2,1.02-2.45.02-2.02-1.37-.02-2.01-.73-3.06-2.13-3.13-1.56-.88-3.67-3.4-3.93-5.45-.42-3.45-.42-34.14.57-35.62.87-1.3,13.94-2.4,11.3,3.91-.5,11.4-.51,22.46.93,33.28Z"/>
    <path class="st26" d="M551.1,733.24c1.73-1.74,6.31,5.49,6.94,7.22.92,2.52.75,27.78-.49,29.39-4.07,5.27-14.83.02-11.34-7.56-.29-6.17-.18-12.35.31-18.52-.2-5.1-6.93-6.01-10.98-5.14-4.65,1-7.37,4.73-7.4,9.33.59,6.87.74,13.86.43,20.97-3.36,1.11-6.57,1-10.04.39l-.13-38.3c2.51-.55,5.21-.96,7.7-.12,1.14.39,1.49,2.51,1.88,3.41,7.12-5.2,16.43-5.57,23.11-1.07Z"/>
    <path class="st60" d="M1374.27,769.81l.42-38.14c3.46-2.04,8.58-1.67,9.31-.11.39.84.29,1.96.46,3.39,6.16-5.35,14.95-6.47,22.3-2.49,4.62,2.5,7.05,7.67,7.06,12.86l.04,24.13c-3.24.57-6.12.62-9.23-.03l-.86-25.05c-.19-5.56-7.28-6.73-11.33-5.75-4.85,1.18-7.62,5.03-7.63,10.32l-.05,20.61-10.49.27Z"/>
    <path class="st28" d="M1011.21,730.86v38.86s-8.81,0-8.81,0l-.54-3.93c-4.23,3.38-9.09,4.68-14.67,4.22-8.12-.67-14.04-6.8-14.06-15.09l-.05-23.9c3.18-.87,6.14-.89,9.09,0l.64,24.3c.14,5.32,6.19,7.05,10.53,6.32,4.9-.82,8.37-4.59,8.43-10.17l.23-20.49,9.21-.13Z"/>
    <path class="st49" d="M957.27,719.74l4.09,1.92c.81,1.11.77,2.57-.13,4.36l-.07.75-1.21,1.53-8.88-2.23c-4.48-.29-9.1-.74-12.95,1.76l.48,1.28c-3.05,3.33-2.94,3.71-.13,6.53.47.48.19,1.28-.28,1.98,6.59,2.82,13.4,5.23,20.41,7.22,2.17,1.21,4.9,3.42,4.59,6.01,2.62,4.6,0,13.05-5.58,15.6-8.34,3.81-19.49,3.58-27.89.04-5.39-2.27-5.32-5.73-.29-7.74,6.15,4.05,14.1,5.53,21.11,3.15l-.45-1.31c7.97-4.42,1.88-11.04-5.37-10.17-1.04-1.03-2.18-1.9-3.44-2.6l-1.02.37c-2.81-.14-7.53-.63-8.15-3.49-7.04-.86-10.33-12.41-5.69-17.74.17-.07.52-.04.8.03,6.42-9.33,20-9.66,30.06-7.26Z"/>
    <path class="st26" d="M704.1,758.87c4.28,1.01,8.61,1.78,13.01,2.32,8.53-.19,9.92-4.56,1.42-6.53-10.96.51-16.58-3.29-16.87-11.39-2.59-.52-1.28-6.51,1.07-6.3.6-2.67,1.63-4.28,4.6-3.77,7.72-4.56,18.24-3.81,26.38.09-.72,3.25-1.72,5.11-3.46,7.07-8.79-4.27-19.18-3.01-18.73,1.94.15,1.62,1.44,2.71,3.27,3.1l12.19,2.57c5.26,1.11,8.36,4.62,8.46,9.5.08,4.29-2.05,8.32-6.57,10.36-8.8,3.97-19.09,2.79-27.76-1.96l2.99-7Z"/>
    <path class="st9" d="M595.82,738c2.71,2.65,4.46,6.12,5.25,10.4,1.62,4.71,3.66,5.92,6.1,3.62.1-.28-.01-.79-.05-1.08.87-3.05,1.75-6.01,2.65-8.87,2.62-2.02,4.16-5.21,4.62-9.56,1.6-3.04,13.48-3.77,10.62.55l-5.12,11.51c-2.68,8.56-5.74,17.03-9.17,25.39l-1.47.1-9.93-.42-16.26-38.63c2.88-.59,7.54-1.48,9.49.6,1.42,1.51,2.6,4.75,3.27,6.38Z"/>
    <path class="st52" d="M1323.7,739.99c.19,3.12-7.19,4.3-8.55,2.07-.33-1.21-2.02-1.65-2.78-2.33-3.41-1.4-6.53-1.25-9.36.48-1.28,1.29-2.38,1.67-3.3,1.17-.59,2.53-1.75,4.31-3.47,5.34l-.27,1.02c-.57,1.8-.58,3.71.08,5.49l.06.76c1.27,1.47,2.31,3.17,3.1,5.08.54.31,1.02.9,1.71,1.03,1.11.46,1.89,1.07,2.32,1.83,5.05,1.21,9.89,0,14.54-3.66,2.92.55,6.42,3.32,3.4,5.79.69,9.08-24.05,7.32-27.42,4.34-.26-.23-.19-.85-.01-1.57-4.44-1.13-7.1-4.82-7.98-11.08.29-.08.33-.32.33-.54-4.89-8.67,2.93-23.91,13.46-23.94,9.6-2.78,21.5-.41,24.14,8.72Z"/>
    <path class="st51" d="M1247.43,769.47c-3.28.55-5.85.49-9.13-.12l-.18-38.34c2.9-.62,5.38-.91,8.23-.11.88.24,1.02,2.72,1.06,4.17,3.52-3.89,8.3-4.71,13.08-4.73l.22,8.35c-3.78.06-6.87.29-9.55,2.61-2.29,1.98-3.69,5-3.7,8.72l-.03,19.44Z"/>
    <path class="st5" d="M577.75,768.94c-2.84,1.64-6.07.88-9.62.49v-38.48c3.19-.7,5.98-.64,9.32.1l.3,37.89Z"/>
    <path class="st28" d="M752.31,769.57l-9.2.02v-38.62c3.23-.86,6.02-.8,9.18-.01l.03,38.6Z"/>
    <path class="st12" d="M799.05,769.87l-5.63-.14c-.23-1.9.03-2.44-1.1-4.34-5.14,5.99-12.05,4.04-18.04,4.8-3.83-.62-9.27-1.8-9.06-6.49-3.42.93-4.34-5.94-4.7-8.88-.65-5.26-.34-10.33,2.07-15.17,3.98-5.34,8.82-8.86,16.16-9.51.82-1.84,4.4-2.28,4.65.1,1.41.49,2.77,0,4.04.04.91.88,1.56,1.73,1.95,2.57.11.84-.13,1.5-.8,1.94-17.36-4.77-29.08,7.31-21.42,24.18-.68,2.04.06,4.05,2.22,6.03.99-1.18,1.86-1.98,2.13-.58,5.44,1.93,10.65,2.23,15.62.89,2.44-2.14,4.78-3.01,7.02-2.63,5.58,6.56,5.3-.79,3.93-5.63.32-12.65.64-25.3.98-37.96l-2.84.23c.45,4.21.16,8.2-.87,11.97l-2.38-.34-1.33-.31c1.11-4.69,1.42-9.73.95-15.13l10,.03.2,52.76c-.86,2.34-1.27,2.98-3.77,1.58Z"/>
    <path class="st6" d="M883.43,732.97c0,1.95-.77,2.03-1.43.18l-1.29,1.63c-7.46-2.07-11.53-.77-17.15,3.94-2.47,1.86-3.72,4.68-3.75,8.45l-1.54,2.78c2.22,3.97,3.11,7.73,2.66,11.25,6.99,4.14,13.67,5.13,20.05,2.99l1.96,1.24c1.6-2.05,1.85-2.2,2.39.42l-5.58,4.73-10.36-.94c-9.47-2.23-14.86-10.18-14.82-19.81.05-10.46,6.58-18.18,16.83-19.67,3.94-.57,8.79.18,12.03,2.81Z"/>
    <path class="st4" d="M1277.14,722.81c-2.17,1.98-4.37,2.13-6.53,1.27-2.73-1.08-3.99-3.31-3.44-6.52.37-2.11,2.5-4.38,5.46-4.24,2.5.11,4.77.74,5.73,2.86.95,2.11.81,4.77-1.22,6.63Z"/>
    <path class="st8" d="M573.72,724.24c-4.28.48-6.93-1.85-6.83-5.69.07-2.76,2.73-5.78,6.53-5.2,3.08.47,5.52,2.11,5.49,5.06-.02,2.46-1.52,5.42-5.19,5.83Z"/>
    <path class="st21" d="M747.19,724.4c-3.12-.12-5.19-2.42-5.52-5.12-.3-2.54,1.6-4.95,4.45-5.75,3.8-1.06,6.85,1.54,7.27,4.1.71,4.34-2.11,6.93-6.2,6.77Z"/>
    <path class="st17" d="M965,751.12c1.3,7.49-2.16,14.9-10.21,17.56-10.18,3.37-21.82,1.56-30.65-4.38,1.11-2.76,1.85-5.02,3.39-7.02.46-.6,2.6.4,2.77.81,5.86,4.09,13.1,4.72,20.23,3.81-4.76,3.37-14.61,2.1-20.74-1.77-1.39-.88-3.35,1.19-2.77,3.13s1.15,1.95,3.23,2.54c8.76,2.48,18.03,3.63,26.92-.12l5.28-4.44.74-10.4c.35-.85.7-.82,1.05.06l.75.21Z"/>
    <path class="st0" d="M957.27,719.74l-9.95-.72-11.9,2.27c-3.5.67-5.68,4.16-8.21,5.71,3.31-9.88,21.57-11.24,30.06-7.26Z"/>
    <path class="st19" d="M1323.22,762.94c-.61.31-1.65.65-2.03,1.12.5-1.1-.31-3.75-1.57-4.46-3.76-2.13-7.38,6.38-16.37,2.33,3.42-.26,6.86-.9,10.33-1.93.98-.95,2.21-2.73,3.37-2.83,1.67-.15,6.48,3.04,6.85,4.24.14.46-.42,1.12-.57,1.54Z"/>
    <path class="st48" d="M961.16,726.76c-.11,1.29-.48,2.43-1.47,3.28l-8.62-3.98,10.1.7Z"/>
    <path class="st48" d="M961.23,726.02c-.85-1.33-.56-2.89.13-4.36.81.38,2.16.36,1.79,1.72-.26.95-1.22,1.98-1.92,2.64Z"/>
    <g>
      <path class="st37" d="M1029.32,732.51c-.64,2.17-2.26,3.47-4.26,3.12,1.42-1.64,2.49-2.22,4.26-3.12Z"/>
      <path class="st28" d="M1051.48,715.96l-.22,18.27c-6.86-4.94-14.92-5.3-21.94-1.73-1.16,1.39-2.55,2.5-4.26,3.12l-3.5,4.05c-3.73,7.45-3.93,23.56,5.16,27.03-.03.51.1,1,.56,1.29,7.01,4.38,14.67,3.1,22.62,1.15l2.07,1.3c2.72-1.05,5.54-.68,8.99-1.01l.09-53.38c-3.32-.91-6.43-.72-9.57-.09ZM1039.74,762.01c-6.63-.28-11.34-5.96-10.8-13.14.47-6.25,5.08-10.57,10.86-10.79,6.1-.24,11.52,4.12,11.89,11.31.4,7.79-5.38,12.89-11.96,12.62Z"/>
    </g>
    <path class="st22" d="M476.34,769.28c-3.39-.38-7.12-1.94-8.13-5.73,3.23.61,5.45,3.85,8.13,5.73Z"/>
    <path class="st22" d="M466.19,762.18c-1.3-.97-1.49-1.81-2.13-3.13,1.09-1.15,2.12-1.13,2.77-.16.7,1.04-.02,2.25-.64,3.29Z"/>
    <path class="st26" d="M1224.23,735.56c-4.02-4.19-10.22-5.75-16.72-5.25-8.98.69-16.1,7.45-17.45,15.97-1.36,8.6,2.13,17.39,10.41,21.43,9.16,4.47,21.51,2.57,26.18-3.68.47-.63-.19-1.52-.27-2.14-1.89-5.11-4.16-6.26-6.81-3.47.48.5.23,1.04-.17,1.36-5.43,1.89-9.44,1.88-14.97.43-2.74-1.66-4.73-3.78-4.97-7.15l29.81-.07c1.3-6.58-.64-12.83-5.04-17.43ZM1199.34,746.92c.41-5.75,4.88-8.78,9.42-9.16,5.62-.47,10.49,2.41,12.06,8.91l-21.48.25Z"/>
    <g>
      <path class="st32" d="M1078.24,732.15c-1.66,1-2.48,3.24-5.74,1.96-.11,2.36.6,3.54,1.46,4.64.74.95,2.23,1.13,3.09,1.41l-2.33,1.68c-.98-1.83-3.43-4.21-3.57-7.1.84-1.09,3.38-1.09,4.26-3.46l2.84.87Z"/>
      <path class="st52" d="M1105.05,743.22c-.05-5.01-3.44-7.78-6.58-10.83-4.13-4.02-9.39-4.77-15.31-4.01-2.63.34-4.92.64-4.91,3.77-1.14-.05-6.21,2.13-6.41,2.7-.56,1.63,2.86,7.35,5.22,5.3,3.32-2.38,7.75-2.5,11.97-1.98,4.3.54,7.19,4.01,6.81,8.37l-15.38.5c-6.2.2-10.24,4.96-10.53,10.36-.31,5.93,2.74,10.43,8.88,11.98,6.08,1.54,12.53.95,17.21-3.54.16,1.31.55,3.46,1.33,3.63l7.95.25-.25-26.52ZM1093.91,760.56c-3.94,2.76-8.47,3.41-12.82,1.41-1.91-.88-2.3-3.5-1.84-5.37,1.05-4.26,11.79-4.52,15.83-3.03,2.05.76.61,5.75-1.17,6.99Z"/>
    </g>
    <g>
      <path class="st25" d="M1447.01,766.9c-5.21,4-13.57,4.28-19.35.81-4.75-2.85-6.03-7.61-4.94-12.08l2.5,8.09c2.89.4,3.33,1.81,4.8,3.2,2.14,2.02,8.23,3.03,10.49,1.12,1.8-1.52,4.43-.11,6.5-1.15Z"/>
      <path class="st36" d="M1430.2,731.83l-4.26,2.88c-1.43.89-.81,2.91.16,3.81.9.83,2.01,1.43,3.34,1.58-.57.27-.99.94-1.76.89-.89-.06-1.67-.34-2.16-1.36l-2.12-4.37c1.28-2,3.38-2.34,4.71-3.42.75.13,1.45.11,2.09,0Z"/>
      <path class="st60" d="M1457.66,743.59c-.02-5.67-3.78-8.53-7.27-11.81-3.95-1.17-7.86-2.19-11.73-3.04-3.19,1.11-6.01,2.14-8.46,3.09-6.58,1.15-8.05,7.84-.76,8.27,3.49-1.62,7.45-2.35,11.72-2.01,4.64.37,7.82,4.28,7.14,8.69-12.07-.39-23.14-1.11-25.57,8.87-.19,13.42,13.76,16.56,24.29,11.26,1.37-.69,2.06,1.73,2.71,2.32,1.88,1.2,5.67.51,8.04.23l-.1-25.86ZM1445.82,760.99c-2.57,1.68-5.17,2.44-8.68,2.11-2.97-.28-5.26-2.06-5.52-4.83-.63-6.62,13-6.2,16.01-4.58,2.34,1.26-.03,6.14-1.8,7.3Z"/>
    </g>
    <g>
      <path class="st23" d="M1335.15,748.53c-.38,2.52-3.04,3.97-4.66,5.89.2,7.63.19,8.69,6.37,12.89,1.33.9,5.02-1.22,6.41,1.72.37-3.57,3.71-.38,10.05-2.05-5.7,4.19-14.22,4.34-20.24.34-3.64-2.41-4.05-5.49-4.15-9.34-.14-5.13,1.9-7.76,6.22-9.45Z"/>
      <path class="st28" d="M1364.02,742.91c-.98-3.19-2.11-7.97-5.84-9.91-8.73-4.52-19.18-3.4-27.91,1.25-.04,2.65,1.21,4.84,3.11,7.14,4.68-2.52,9.4-4.02,14.64-3.23,4.27.64,6.84,3.98,6.79,8.33l-12.61.2c-2.86.05-5.07,1.05-7.04,1.83-5.78,3.75-7.63,11.34-2.86,16.67,4.88,5.46,14.99,4.14,21.04,1.77.37-.39,1.03-1.04,1.46-.8.5.28.96,1.8.48,2.94,3.41,1.34,8.41.84,8.69.16l.61-1.5c.36-8.38.18-16.66-.55-24.86ZM1354.24,758.78c-2.53,5.15-9,6.05-13.91,4-1.63-1.31-2.38-3.35-2.35-5.34.02-1.58,1.39-3.86,3.31-4.12.25-.65.69-.71,1.3-.77,3.56-.34,10.64-.93,12.47,1.56l-.8,4.67Z"/>
      <path class="st23" d="M1340.33,762.78c5.22,1.03,10.43.37,13.91-4-1.01,5.89-10.06,7.08-13.91,4Z"/>
      <path class="st23" d="M1355.04,754.11c-4.19-1.81-9.26-1.39-13.76-.79-.26-.67.11-1.37.95-1.37l12.77.02c.38.72.11,1.71.04,2.14Z"/>
    </g>
    <path class="st27" d="M964.24,750.91l-1.05-.06c-1.76-3.29-5.53-6.27-9.7-6.68-5-.5-9.33-3.76-14.26-5.14-.6-.17-.91-1.17-1.04-1.41l18.08,5.21c4.15,1.22,7.61,3.99,7.98,8.08Z"/>
    <g>
      <path class="st54" d="M822.5,753.71l.56,2.44c-2.57,4.17,1.81,4.83,5.23,4.78,3.13-1.19,5.4-1.1,6.82.28-.14,1.01-.41,1.62-.72,2.16l.52.52c3.4,2.46,7.23,3.17,11.42,3.02,0,.61.32,1.83-.09,2.41-.39.54-8.68,1.89-9.69-2.57-6.08,4.41-14.26,4.43-20.91.85-2.68-1.44-2.97-3.52-3.77-5.56,2.17.84,3.8,2.33,4.44,4.88l15.46.83c.65-1.85,1.46-2.62,2.56-3.27l-1.18-.34-12.55-.35c-1.14-2.21-1.89-4.39-1.72-6.56s1.79-3.11,3.63-3.53Z"/>
      <path class="st24" d="M846.13,743.02c-.04-5.52-4.05-10.18-9.39-11.68-7.88-2.21-17.25-1.37-24.04,3.12-.76,2.8,2.78,7.1,5.07,6.58,4.58-1.94,9.14-2.73,13.68-2.37l2.52,1.25c3.6,5.44.96,7.56-7.92,6.35l-4.79.56c-3.14,1.22-6.48,2.33-8.19,4.64-2.61,3.51-2.55,7.17-1.2,10.58,3.49,6.43,9.04,7.12,15.96,6.77,3.13-.16,7.51-.7,6.5-4.32.19-.11.4-.27.58-.59-.65,1.45.44,2.56,3.26,3.35,2.47,1.07,6.9,2.33,8.15-.33l-.19-23.91ZM835.8,760.03c-.26.09-.64.78-.7,1.19-3.47,1.3-7.32,2.48-11.55,1.22-1.78-.53-3.17-2.48-3.33-4.03-.17-1.66.95-3.24,2.28-4.69,4.93-1.1,9.71-.65,15.05-.65,1.2,2,.31,5.39-1.74,6.97Z"/>
      <path class="st54" d="M835.8,760.03c1.23-2.28,1.69-4.66,1.74-6.97.93-.85,2.24.43.9,1.22.73,2.64-.14,4.93-2.64,5.74Z"/>
    </g>
    <g>
      <path class="st61" d="M659.95,734.18l3.04,2.98c.84.82.9,2.83,1.31,3.82l-1.84,1.11c-2.56-1.17-11.23-8.06-7.31-10.19,1.57-.03,3.61,1.1,4.81,2.27Z"/>
      <path class="st61" d="M634.17,734.42c-.12,1.7-1.38,3.61-2.63,4.66-3.87,3.23-2.84,6.82-2.89,10.65-.04,3.49-.97,5.26,1.46,8.53,1.72,2.32,2.55,5.34,6.15,6.88,1.15.49,2.95.63,3.33,2.47.03.58-.47.73-1.49.44-7.26-3.14-11.38-9.96-11.18-18.09.16-6.4,1.81-12.28,7.25-15.53Z"/>
      <path class="st14" d="M657.39,768.07c-5.54,3.09-13.58,2.43-19.3-.04l1.49-.44,17.81.48Z"/>
      <path class="st14" d="M659.26,767.09c.93-1.28,1.59-4.89-.46-5.64s-4.24.43-5.78.43l5.92-3.74c1.47,1.49,3.77,2.86,4.34,5.02s-2.47,3.79-4.03,3.93Z"/>
      <path class="st61" d="M654.45,731.92l-15.57.16c4.86-2.12,10.75-3.07,15.57-.16Z"/>
    </g>
    <path class="st60" d="M885.33,765.85c-.67.22-1.76-.37-2.39-.42-.86-1.08-1.31-2.33-1.35-3.76,8.94-5.56,7.84-17.84-.59-23.5l.13-1.46c.28-2.59,1.64-1.17.62-.72-1.5.66-1.62-2.14.25-2.83l1.43-.18c.47.38,1.2.63,1.78.67.91.98,1.49,1.05,1.74.19l-.7-17.85h9.65s-.02,53.49-.02,53.49c-2.45.71-5.44.4-7.84.21-.93-.22-1.45-2.63.03-4.47-.98.03-1.87.34-2.73.62Z"/>
    <path class="st6" d="M886.95,733.84c.07,1.66-.56,3.57-1.31,5.19-.82-2.15-.42-3.79-.43-5.38l1.74.19Z"/>
    <path class="st18" d="M769.4,764.99c-4.34-4.84-4.13-7.39.63-7.66,6.32,7.73,16.24,7.38,22.86.61-.43-1.45-.25-3.36.57-5.73l-.08-5.42s-1.42-2.7-4.27-8.1c-2.67-2.67.52-5.48,3.01-2.76.76-1.19,1.05-2.19.86-2.99l.02-2.01c.76-.54,1.32-1.5,1.31-2.88l-.07-11.01,6.97.05-.13,11.8c-1.45,7.52-.83,14.41-.26,21.84.24,3.08-1.69,6.19-.02,9.78,1.07,2.31-.68,6.76-3.11,6.94-1.98.15-3.35-2.38-4.33-3.03-2.46-.99-4.73,2.29-6.52,3-5.83,2.33-12.14-.46-17.42-2.44Z"/>
    <path class="st3" d="M789.4,732.85l1.81.76c1.88.22,2.39,1.04.91,2.33-1.46.28-2.66,1.18-3.01,2.76-3.27-1.38-6.55-1.78-9.84-1.18v2.32c-14.67,6.71-4.56,27.82,9.32,17.31l2.17.54c1.18-2.18,1.9-2.1,2.14.26-.93,2.31-4.86,6.29-7.48,6.12l-13.79-.9c.51-1.91.2-2.61-.38-2.92-1.01-.54-1.99-1.42-2.57-1.1-.94.53-1.78,2.63-.91,3s1.93.86,2.17,1.27c.21.37-.27,1.19-.51,1.56-3.39-1.28-3.65-4.8-5.18-8.1-3.02-6.47-1.45-13.08,2.65-19.38,3.14-4.82,9.17-5.85,14.95-5.34l7.57.67Z"/>
    <path class="st20" d="M882.01,733.15c.4,1.11.83,2.05.91,3.76l-1.78-.2-.55,1.17c-4.35-1.58-8.68-1.61-12.23,1.79,1.45,1.16-.21,3.87-1.91,2.28-8.79,11.67,1.44,25.05,15.15,19.72,1.21-.01,2.57.79,2.49,1.7-.06.67-.84,1.56-1.14,2.06l-4.06,2.07c-7.1.37-13.89-1.51-19.57-5.53,1.39-5.28-4.46-10.88-2.63-13.2,4.01-5.08-1.9-8.75,10.11-14.01-.39-.58-1.28-.56-1.63-2.09,3.38.87,6.11-1.11,9.13-.66l7.72,1.14Z"/>
    <path class="st12" d="M792.12,735.94l-.91-2.33,1.46.32c.31.07.8-.5.31-.98.49.08,1.31.89,1.16,1.36-.29.89-1.3,1.49-2.02,1.63Z"/>
    <path class="st56" d="M664.3,740.98l-4.05-3.07c-2.47-1.85-4.31-3.28-5.1-6h-.7c-5.08-1.4-10.49-.93-15.57.18-1.83.02-3.34,1.52-4.71,2.34-10.26,9.7-8.75,28.35,5.42,33.18,5.37,2.14,12.17,1.58,17.81.48.5-.28,1.14-.92,1.87-.98,6-5.07-.48-9.25-6.24-5.21-7.75-.01-14.25.44-16.7-8.62l29.93-.26c1.27-4.64-.38-8.27-1.95-12.03ZM636.19,746.9c.52-5.63,4.9-8.65,9.59-9.09,5.09-.47,9.95,1.51,11.9,8.57l-21.49.52Z"/>
    <g>
      <path class="st41" d="M684.56,769.45l-9.46.19-.16-34.72c0-1.21-.49-2.62.13-3.46,1.06-1.42,7.46-1.33,8.45-.51.75.63.75,2.39.87,4.11,3.61-3.61,8.31-5.1,13.34-4.83l.31,8.76c-7.53-1.23-13.59,3.56-13.56,10.03l.08,20.43Z"/>
      <path class="st51" d="M682.44,758.27c.06,3.78.92,6.84-1.51,9.82-1.67-.55-2.7-1.68-4.28-2.73-.85-7.12-.6-14.09.54-21.38.55-3.53-1.02-7.53.34-10.83.51-1.1,4.52-.61,5,.51l3.36,7.99c-2.68,2.2-3.63,4.76-3.57,8.32l.14,8.31Z"/>
    </g>
    <path class="st6" d="M881.13,736.71c5.98,4.9,8.19,10.75,7.03,18.51-.44,2.92-3.71,5.17-6.57,6.45-1.69.75-3.48,2.08-5.73,2.04-3.85-.07-9.68-1.89-11.89-5.36s-1.85-9.06-1.14-12.84c.34-1.83,2.46-2.93,3.62-3.57,2.18.93.68,4.05-1.41,4.05l1.65,1.63c-1.92,8.28,4.79,15.2,12.88,11.36l1.88,1.26c.8-1.54,2.02-2.92,3.66-4.16,1.09-2.26.87-7.14.3-9.63-1.49-6.55-9.91-10.56-15.32-5.73l-1.72-1.05c1.43-2.94,4.77-4.62,8.04-3.99l4.74,1.03Z"/>
    <path class="st12" d="M789.11,738.69c.48.55,1.21,1.07,2.85.84-.74,2.22,1.06,3.16,1.71,4.91,1.47,3.93.63,10.01-.77,13.5l-2.14-.26c-.68-.47-1.24-1.15-1.12-2,1.38-9.23,1.83-14.22-9.32-16.17l-1.05-2.01c2.83-1.67,7.11-1.94,9.84,1.18Z"/>
    <g>
      <path class="st38" d="M1277.95,730.93c.63,11.59.67,23.41.11,35.47-.97.65-1.04,1.89-1.04,3.3l-8.8-.11-.02-38.59,9.76-.07Z"/>
      <path class="st13" d="M1276.28,766.73c-.98.42-1.67-1.05-1.67-1.91-.44,1.44-.67,2.95-1.13,3.54s-1.99.52-3.18.2c-.82-.22-.64-1.6-.83-3.08l-.24-33.26c1.75-.78,6.09-.65,6.7.88l.35,33.63Z"/>
    </g>
  </g>
</svg>